<svg width="150" height="150" viewBox="0 0 150 150" fill="none" xmlns="http://www.w3.org/2000/svg">
<path fill-rule="evenodd" clip-rule="evenodd" d="M56.2503 75H42.0753C40.6995 77.383 38.5758 79.2455 36.0335 80.2985C33.4913 81.3515 30.6727 81.5363 28.0148 80.8241C25.3568 80.1119 23.0082 78.5426 21.3331 76.3595C19.658 74.1765 18.75 71.5017 18.75 68.75C18.75 65.9983 19.658 63.3235 21.3331 61.1405C23.0082 58.9574 25.3568 57.3881 28.0148 56.6759C30.6727 55.9637 33.4913 56.1485 36.0335 57.2015C38.5758 58.2545 40.6995 60.117 42.0753 62.5H56.2503V31.25C56.2503 27.9348 57.5673 24.7554 59.9115 22.4112C62.2557 20.067 65.4351 18.75 68.7503 18.75H118.75C122.066 18.75 125.245 20.067 127.589 22.4112C129.933 24.7554 131.25 27.9348 131.25 31.25V118.75C131.25 122.065 129.933 125.245 127.589 127.589C125.245 129.933 122.066 131.25 118.75 131.25H68.7503C65.4351 131.25 62.2557 129.933 59.9115 127.589C57.5673 125.245 56.2503 122.065 56.2503 118.75V75ZM68.7503 75V118.75H118.75V31.25H68.7503V62.5H82.9253C84.3012 60.117 86.4249 58.2545 88.9671 57.2015C91.5093 56.1485 94.328 55.9637 96.9859 56.6759C99.6438 57.3881 101.992 58.9574 103.668 61.1405C105.343 63.3235 106.251 65.9983 106.251 68.75C106.251 71.5017 105.343 74.1765 103.668 76.3595C101.992 78.5426 99.6438 80.1119 96.9859 80.8241C94.328 81.5363 91.5093 81.3515 88.9671 80.2985C86.4249 79.2455 84.3012 77.383 82.9253 75H68.7503Z" fill="#254D88"/>
</svg>
