<svg width="150" height="150" viewBox="0 0 150 150" fill="none" xmlns="http://www.w3.org/2000/svg">
<g filter="url(#filter0_d_273_360)">
<path d="M34.8438 12.9626C35.6395 13.3452 36.311 13.9447 36.7809 14.6922C37.2508 15.4396 37.5001 16.3046 37.5 17.1876C37.5 22.3751 39.45 25.3626 41.8938 29.0001L42.075 29.2626C44.15 32.3501 46.875 36.3938 46.875 42.1876C46.875 48.1001 43.8938 53.3126 39.35 56.4063C40.5438 57.4063 41.6 58.6376 42.5125 60.1126C45.4875 64.9251 46.875 72.2813 46.875 82.8438C46.875 93.5438 45.4375 106.394 43.0938 116.656C41.9313 121.756 40.4875 126.463 38.7688 129.994C37.9573 131.751 36.8824 133.374 35.5813 134.806C34.2938 136.125 32.3125 137.531 29.6875 137.531C27.0625 137.531 25.0813 136.125 23.8 134.806C22.4951 133.377 21.4198 131.753 20.6125 129.994C18.8875 126.456 17.4438 121.756 16.2813 116.65C13.8434 105.542 12.5761 94.2095 12.5 82.8376C12.5 72.2751 13.8875 64.9251 16.8625 60.1126C17.7112 58.7156 18.779 57.4643 20.025 56.4063C17.7048 54.8311 15.8059 52.7115 14.4941 50.2328C13.1823 47.7542 12.4977 44.9919 12.5 42.1876C12.5 39.8876 12.5 35.9313 14.8938 30.8251C17.2375 25.8251 21.6938 20.0813 29.8813 13.5251C30.5713 12.9731 31.4033 12.6274 32.2814 12.5279C33.1594 12.4284 34.0477 12.579 34.8438 12.9626ZM62.5 93.2313C59.1888 92.6759 55.9679 91.6752 52.925 90.2563C53.0563 87.7188 53.125 85.2313 53.125 82.8438C53.125 80.3063 53.05 77.8813 52.8875 75.5688C55.6563 77.8501 58.925 79.5438 62.5 80.4626V65.6251C62.5 63.1387 63.4877 60.7541 65.2459 58.9959C67.004 57.2378 69.3886 56.2501 71.875 56.2501H93.75C93.7506 51.4813 92.3873 46.8118 89.8208 42.7926C87.2544 38.7733 83.5919 35.5719 79.2655 33.566C74.9391 31.5602 70.1293 30.8336 65.4035 31.472C60.6776 32.1103 56.2329 34.087 52.5938 37.1688C51.5125 32.0813 49 28.3563 47.3938 25.9751L47.1438 25.6001C52.7591 21.6416 59.354 19.3018 66.2086 18.8362C73.0631 18.3706 79.9138 19.797 86.0129 22.9598C92.112 26.1225 97.225 30.9 100.794 36.7707C104.363 42.6414 106.25 49.3797 106.25 56.2501H128.125C130.611 56.2501 132.996 57.2378 134.754 58.9959C136.512 60.7541 137.5 63.1387 137.5 65.6251V121.875C137.5 124.361 136.512 126.746 134.754 128.504C132.996 130.262 130.611 131.25 128.125 131.25H71.875C69.3886 131.25 67.004 130.262 65.2459 128.504C63.4877 126.746 62.5 124.361 62.5 121.875V93.2313ZM75 93.2313V118.75H125V68.7501H104.119C101.885 75.0549 98.0068 80.6486 92.8864 84.9526C87.766 89.2566 81.5889 92.1146 74.9938 93.2313H75ZM90.4063 68.7501H75V80.4626C78.2164 79.6295 81.2349 78.165 83.8799 76.1542C86.5248 74.1434 88.7434 71.6265 90.4063 68.7501Z" fill="#254D88"/>
</g>
<defs>
<filter id="filter0_d_273_360" x="-4" y="0" width="158" height="158" filterUnits="userSpaceOnUse" color-interpolation-filters="sRGB">
<feFlood flood-opacity="0" result="BackgroundImageFix"/>
<feColorMatrix in="SourceAlpha" type="matrix" values="0 0 0 0 0 0 0 0 0 0 0 0 0 0 0 0 0 0 127 0" result="hardAlpha"/>
<feOffset dy="4"/>
<feGaussianBlur stdDeviation="2"/>
<feComposite in2="hardAlpha" operator="out"/>
<feColorMatrix type="matrix" values="0 0 0 0 0 0 0 0 0 0 0 0 0 0 0 0 0 0 0.25 0"/>
<feBlend mode="normal" in2="BackgroundImageFix" result="effect1_dropShadow_273_360"/>
<feBlend mode="normal" in="SourceGraphic" in2="effect1_dropShadow_273_360" result="shape"/>
</filter>
</defs>
</svg>
