<svg width="181" height="165" viewBox="0 0 181 165" fill="none" xmlns="http://www.w3.org/2000/svg">
<g clip-path="url(#clip0_268_8)">
<path d="M153.248 8.5166H27.7543C17.7579 8.5166 9.6543 15.6656 9.6543 24.4843V30.8714C9.6543 39.6902 17.7579 46.8392 27.7543 46.8392H153.248C163.244 46.8392 171.348 39.6902 171.348 30.8714V24.4843C171.348 15.6656 163.244 8.5166 153.248 8.5166Z" fill="#506380"/>
<path d="M29.4541 30.9559V31.9351H24.0029V30.9559H29.4541ZM24.2786 22.8535V31.9351H22.9141V22.8535H24.2786ZM28.7329 26.7581V27.7374H24.0029V26.7581H28.7329ZM29.3834 22.8535V23.839H24.0029V22.8535H29.3834ZM32.367 22.3545V31.9351H31.052V22.3545H32.367ZM35.8881 25.1863V31.9351H34.573V25.1863H35.8881ZM34.474 23.3961C34.474 23.209 34.5376 23.051 34.6649 22.9221C34.7969 22.7932 34.9901 22.7287 35.2447 22.7287C35.4945 22.7287 35.6854 22.7932 35.8174 22.9221C35.9541 23.051 36.0224 23.209 36.0224 23.3961C36.0224 23.575 35.9541 23.7288 35.8174 23.8577C35.6854 23.9825 35.4945 24.0448 35.2447 24.0448C34.9901 24.0448 34.7969 23.9825 34.6649 23.8577C34.5376 23.7288 34.474 23.575 34.474 23.3961ZM42.9443 25.1863H44.132V31.7917C44.132 32.3863 43.9954 32.8936 43.722 33.3136C43.4486 33.7336 43.0668 34.0517 42.5766 34.2679C42.0911 34.4883 41.5302 34.5985 40.8938 34.5985C40.6299 34.5985 40.3188 34.5611 39.9606 34.4863C39.607 34.4156 39.2582 34.2929 38.9142 34.1182C38.5748 33.9477 38.2896 33.717 38.0586 33.4259L38.7445 32.7398C39.065 33.0807 39.3997 33.3178 39.7484 33.4508C40.102 33.5839 40.4508 33.6504 40.7949 33.6504C41.2097 33.6504 41.5679 33.5818 41.8695 33.4446C42.1712 33.3074 42.4046 33.1036 42.5695 32.8333C42.7392 32.5672 42.8241 32.2387 42.8241 31.8478V26.6708L42.9443 25.1863ZM37.6768 28.6356V28.5046C37.6768 27.9889 37.7452 27.5211 37.8819 27.1012C38.0233 26.677 38.2236 26.3132 38.4829 26.0096C38.7469 25.7061 39.065 25.4732 39.4374 25.311C39.8098 25.1447 40.2292 25.0615 40.6959 25.0615C41.1767 25.0615 41.5962 25.1364 41.9544 25.2861C42.3173 25.4316 42.6237 25.6458 42.8735 25.9285C43.1281 26.2071 43.3284 26.5439 43.4745 26.939C43.6206 27.334 43.722 27.781 43.7785 28.28V28.8538C43.7267 29.3487 43.6254 29.7937 43.4745 30.1887C43.3284 30.5837 43.1281 30.9205 42.8735 31.1991C42.6237 31.4777 42.3173 31.6919 41.9544 31.8416C41.5915 31.9871 41.1673 32.0599 40.6817 32.0599C40.2245 32.0599 39.8098 31.9746 39.4374 31.8041C39.0697 31.6337 38.7539 31.3946 38.49 31.0868C38.226 30.7791 38.0233 30.4173 37.8819 30.0016C37.7452 29.5815 37.6768 29.1263 37.6768 28.6356ZM38.9849 28.5046V28.6356C38.9849 28.9724 39.0226 29.2884 39.098 29.5836C39.1781 29.8789 39.2983 30.1388 39.4585 30.3633C39.6236 30.5879 39.8333 30.7646 40.0878 30.8935C40.3424 31.0182 40.6464 31.0806 40.9999 31.0806C41.4336 31.0806 41.7918 30.9995 42.0746 30.8374C42.3574 30.6752 42.5813 30.461 42.7463 30.1949C42.916 29.9288 43.048 29.6398 43.1422 29.3279V27.8247C43.0904 27.596 43.0103 27.3756 42.9018 27.1635C42.7981 26.9473 42.6614 26.756 42.4917 26.5897C42.3267 26.4192 42.1217 26.284 41.8766 26.1842C41.6315 26.0845 41.344 26.0346 41.0141 26.0346C40.6558 26.0346 40.3471 26.1011 40.0878 26.2342C39.8333 26.363 39.6236 26.5419 39.4585 26.7706C39.2983 26.9951 39.1781 27.2571 39.098 27.5565C39.0226 27.8517 38.9849 28.1678 38.9849 28.5046ZM47.54 25.1863V31.9351H46.2249V25.1863H47.54ZM46.1259 23.3961C46.1259 23.209 46.1895 23.051 46.3168 22.9221C46.4488 22.7932 46.642 22.7287 46.8966 22.7287C47.1463 22.7287 47.3372 22.7932 47.4692 22.9221C47.6059 23.051 47.6743 23.209 47.6743 23.3961C47.6743 23.575 47.6059 23.7288 47.4692 23.8577C47.3372 23.9825 47.1463 24.0448 46.8966 24.0448C46.642 24.0448 46.4488 23.9825 46.3168 23.8577C46.1895 23.7288 46.1259 23.575 46.1259 23.3961ZM49.6327 22.3545H50.9478V30.6253L50.8347 31.9351H49.6327V22.3545ZM56.1162 28.5046V28.6356C56.1162 29.1263 56.0502 29.5815 55.9183 30.0016C55.7863 30.4173 55.593 30.7791 55.3385 31.0868C55.084 31.3946 54.7729 31.6337 54.4052 31.8041C54.0376 31.9746 53.6157 32.0599 53.1396 32.0599C52.6541 32.0599 52.2276 31.9871 51.8599 31.8416C51.497 31.6919 51.1906 31.4777 50.9408 31.1991C50.6909 30.9205 50.4906 30.5837 50.3398 30.1887C50.1937 29.7937 50.0923 29.3487 50.0358 28.8538V28.28C50.0923 27.781 50.1937 27.334 50.3398 26.939C50.4906 26.5439 50.6909 26.2071 50.9408 25.9285C51.1906 25.6458 51.497 25.4316 51.8599 25.2861C52.2229 25.1364 52.6447 25.0615 53.1255 25.0615C53.6063 25.0615 54.0328 25.1447 54.4052 25.311C54.7776 25.4732 55.0887 25.7061 55.3385 26.0096C55.593 26.3132 55.7863 26.677 55.9183 27.1012C56.0502 27.5211 56.1162 27.9889 56.1162 28.5046ZM54.8011 28.6356V28.5046C54.8011 28.1678 54.7658 27.8517 54.6951 27.5565C54.6244 27.2571 54.5113 26.9951 54.3558 26.7706C54.2002 26.5419 53.9951 26.363 53.7406 26.2342C53.4861 26.1011 53.1726 26.0346 52.8002 26.0346C52.4703 26.0346 52.1828 26.0845 51.9377 26.1842C51.6973 26.284 51.4923 26.4192 51.3226 26.5897C51.1529 26.756 51.0138 26.9473 50.9054 27.1635C50.8017 27.3756 50.7239 27.596 50.6721 27.8247V29.3279C50.7475 29.619 50.8701 29.8997 51.0398 30.17C51.2141 30.4361 51.4451 30.6544 51.7326 30.8249C52.0249 30.9954 52.3855 31.0806 52.8144 31.0806C53.1679 31.0806 53.4696 31.0182 53.7194 30.8935C53.9739 30.7646 54.179 30.5879 54.3345 30.3633C54.4948 30.1388 54.6126 29.8789 54.688 29.5836C54.7634 29.2884 54.8011 28.9724 54.8011 28.6356ZM59.1918 25.1863V31.9351H57.8768V25.1863H59.1918ZM57.7777 23.3961C57.7777 23.209 57.8414 23.051 57.9686 22.9221C58.1006 22.7932 58.2939 22.7287 58.5484 22.7287C58.7982 22.7287 58.9891 22.7932 59.1211 22.9221C59.2578 23.051 59.3261 23.209 59.3261 23.3961C59.3261 23.575 59.2578 23.7288 59.1211 23.8577C58.9891 23.9825 58.7982 24.0448 58.5484 24.0448C58.2939 24.0448 58.1006 23.9825 57.9686 23.8577C57.8414 23.7288 57.7777 23.575 57.7777 23.3961ZM62.7126 22.3545V31.9351H61.398V22.3545H62.7126ZM66.2337 25.1863V31.9351H64.919V25.1863H66.2337ZM64.8201 23.3961C64.8201 23.209 64.8834 23.051 65.0107 22.9221C65.1429 22.7932 65.3359 22.7287 65.5905 22.7287C65.8403 22.7287 66.031 22.7932 66.1631 22.9221C66.3001 23.051 66.3682 23.209 66.3682 23.3961C66.3682 23.575 66.3001 23.7288 66.1631 23.8577C66.031 23.9825 65.8403 24.0448 65.5905 24.0448C65.3359 24.0448 65.1429 23.9825 65.0107 23.8577C64.8834 23.7288 64.8201 23.575 64.8201 23.3961ZM71.5364 25.1863V26.072H67.4005V25.1863H71.5364ZM68.8003 23.5458H70.1083V30.2635C70.1083 30.4922 70.1487 30.6648 70.2284 30.7812C70.3086 30.8977 70.4124 30.9746 70.5397 31.012C70.667 31.0494 70.8033 31.0681 70.95 31.0681C71.058 31.0681 71.1714 31.0598 71.289 31.0432C71.4115 31.0224 71.5038 31.0058 71.5648 30.9933L71.572 31.9351C71.4682 31.9643 71.3313 31.9913 71.1617 32.0162C70.997 32.0453 70.7967 32.0599 70.5608 32.0599C70.2404 32.0599 69.946 32.0037 69.6769 31.8915C69.4084 31.7792 69.1943 31.5921 69.0338 31.3301C68.8781 31.064 68.8003 30.7064 68.8003 30.2573V23.5458ZM75.2204 31.2365L77.3483 25.1863H78.748L75.6801 32.9768C75.6089 33.1431 75.5148 33.3219 75.3971 33.5132C75.2837 33.7086 75.1377 33.8937 74.9585 34.0683C74.7793 34.243 74.5627 34.3844 74.3081 34.4925C74.0583 34.6047 73.7591 34.6609 73.4104 34.6609C73.3066 34.6609 73.1744 34.6484 73.0146 34.6235C72.8541 34.5985 72.7407 34.5777 72.6749 34.5611L72.6676 33.6255C72.7057 33.6296 72.7642 33.6338 72.8444 33.6379C72.9295 33.6462 72.9886 33.6504 73.0212 33.6504C73.318 33.6504 73.5702 33.6151 73.7778 33.5444C73.9853 33.4778 74.1597 33.3635 74.3009 33.2013C74.4475 33.0433 74.5724 32.825 74.6755 32.5464L75.2204 31.2365ZM73.6577 25.1863L75.6445 30.4257L75.9836 31.642L75.0436 32.0661L72.2296 25.1863H73.6577Z" fill="white"/>
<path d="M154.453 32.9996L159.678 27.0117H149.229L154.453 32.9996Z" fill="#EB9411"/>
<path d="M153.248 63.3389H27.7543C17.7579 63.3389 9.6543 70.4879 9.6543 79.3066V85.6937C9.6543 94.5124 17.7579 101.661 27.7543 101.661H153.248C163.244 101.661 171.348 94.5124 171.348 85.6937V79.3066C171.348 70.4879 163.244 63.3389 153.248 63.3389Z" fill="#154692"/>
<path d="M29.4541 85.779V86.7584H24.0029V85.779H29.4541ZM24.2786 77.677V86.7584H22.9141V77.677H24.2786ZM28.7329 81.5811V82.5605H24.0029V81.5811H28.7329ZM29.3834 77.677V78.6622H24.0029V77.677H29.3834ZM32.367 77.1777V86.7584H31.052V77.1777H32.367ZM35.8881 80.0094V86.7584H34.573V80.0094H35.8881ZM34.474 78.2194C34.474 78.032 34.5376 77.8745 34.6649 77.7451C34.7969 77.6163 34.9901 77.5519 35.2447 77.5519C35.4945 77.5519 35.6854 77.6163 35.8174 77.7451C35.9541 77.8745 36.0224 78.032 36.0224 78.2194C36.0224 78.3982 35.9541 78.552 35.8174 78.6808C35.6854 78.8059 35.4945 78.8682 35.2447 78.8682C34.9901 78.8682 34.7969 78.8059 34.6649 78.6808C34.5376 78.552 34.474 78.3982 34.474 78.2194ZM42.9443 80.0094H44.132V86.6147C44.132 87.2097 43.9954 87.717 43.722 88.1369C43.4486 88.5569 43.0668 88.8752 42.5766 89.0913C42.0911 89.3116 41.5302 89.4218 40.8938 89.4218C40.6299 89.4218 40.3188 89.3845 39.9606 89.3095C39.607 89.2387 39.2582 89.1163 38.9142 88.9417C38.5748 88.7709 38.2896 88.5404 38.0586 88.2492L38.7445 87.5632C39.065 87.9038 39.3997 88.1412 39.7484 88.2743C40.102 88.4073 40.4508 88.4739 40.7949 88.4739C41.2097 88.4739 41.5679 88.4052 41.8695 88.2679C42.1712 88.1305 42.4046 87.9267 42.5695 87.6568C42.7392 87.3907 42.8241 87.0618 42.8241 86.6711V81.4938L42.9443 80.0094ZM37.6768 83.4589V83.328C37.6768 82.8122 37.7452 82.3444 37.8819 81.9244C38.0233 81.5002 38.2236 81.1367 38.4829 80.8328C38.7469 80.5294 39.065 80.2962 39.4374 80.1344C39.8098 79.9678 40.2292 79.8848 40.6959 79.8848C41.1767 79.8848 41.5962 79.9598 41.9544 80.1094C42.3173 80.2547 42.6237 80.4692 42.8735 80.7518C43.1281 81.0302 43.3284 81.3671 43.4745 81.7621C43.6206 82.157 43.722 82.6041 43.7785 83.1034V83.6771C43.7267 84.1721 43.6254 84.6171 43.4745 85.012C43.3284 85.407 43.1281 85.7439 42.8735 86.0223C42.6237 86.3012 42.3173 86.5151 41.9544 86.6647C41.5915 86.8105 41.1673 86.8829 40.6817 86.8829C40.2245 86.8829 39.8098 86.7978 39.4374 86.6274C39.0697 86.4571 38.7539 86.2176 38.49 85.91C38.226 85.6023 38.0233 85.2404 37.8819 84.8247C37.7452 84.4047 37.6768 83.9497 37.6768 83.4589ZM38.9849 83.328V83.4589C38.9849 83.7958 39.0226 84.1115 39.098 84.4069C39.1781 84.7023 39.2983 84.962 39.4585 85.1866C39.6236 85.4112 39.8333 85.5879 40.0878 85.7168C40.3424 85.8413 40.6464 85.9041 40.9999 85.9041C41.4336 85.9041 41.7918 85.8227 42.0746 85.6609C42.3574 85.4985 42.5813 85.284 42.7463 85.0179C42.916 84.7518 43.048 84.4633 43.1422 84.1514V82.6477C43.0904 82.4194 43.0103 82.1991 42.9018 81.9867C42.7981 81.7706 42.6614 81.5795 42.4917 81.4129C42.3267 81.2426 42.1217 81.1074 41.8766 81.0073C41.6315 80.9078 41.344 80.8578 41.0141 80.8578C40.6558 80.8578 40.3471 80.9243 40.0878 81.0574C39.8333 81.1862 39.6236 81.365 39.4585 81.5939C39.2983 81.8185 39.1781 82.0804 39.098 82.3795C39.0226 82.6749 38.9849 82.9911 38.9849 83.328ZM47.54 80.0094V86.7584H46.2249V80.0094H47.54ZM46.1259 78.2194C46.1259 78.032 46.1895 77.8745 46.3168 77.7451C46.4488 77.6163 46.642 77.5519 46.8966 77.5519C47.1463 77.5519 47.3372 77.6163 47.4692 77.7451C47.6059 77.8745 47.6743 78.032 47.6743 78.2194C47.6743 78.3982 47.6059 78.552 47.4692 78.6808C47.3372 78.8059 47.1463 78.8682 46.8966 78.8682C46.642 78.8682 46.4488 78.8059 46.3168 78.6808C46.1895 78.552 46.1259 78.3982 46.1259 78.2194ZM49.6327 77.1777H50.9478V85.4485L50.8347 86.7584H49.6327V77.1777ZM56.1162 83.328V83.4589C56.1162 83.9497 56.0502 84.4047 55.9183 84.8247C55.7863 85.2404 55.593 85.6023 55.3385 85.91C55.084 86.2176 54.7729 86.4571 54.4052 86.6274C54.0376 86.7978 53.6157 86.8829 53.1396 86.8829C52.6541 86.8829 52.2276 86.8105 51.8599 86.6647C51.497 86.5151 51.1906 86.3012 50.9408 86.0223C50.6909 85.7439 50.4906 85.407 50.3398 85.012C50.1937 84.6171 50.0923 84.1721 50.0358 83.6771V83.1034C50.0923 82.6041 50.1937 82.157 50.3398 81.7621C50.4906 81.3671 50.6909 81.0302 50.9408 80.7518C51.1906 80.4692 51.497 80.2547 51.8599 80.1094C52.2229 79.9598 52.6447 79.8848 53.1255 79.8848C53.6063 79.8848 54.0328 79.9678 54.4052 80.1344C54.7776 80.2962 55.0887 80.5294 55.3385 80.8328C55.593 81.1367 55.7863 81.5002 55.9183 81.9244C56.0502 82.3444 56.1162 82.8122 56.1162 83.328ZM54.8011 83.4589V83.328C54.8011 82.9911 54.7658 82.6749 54.6951 82.3795C54.6244 82.0804 54.5113 81.8185 54.3558 81.5939C54.2002 81.365 53.9951 81.1862 53.7406 81.0574C53.4861 80.9243 53.1726 80.8578 52.8002 80.8578C52.4703 80.8578 52.1828 80.9078 51.9377 81.0073C51.6973 81.1074 51.4923 81.2426 51.3226 81.4129C51.1529 81.5795 51.0138 81.7706 50.9054 81.9867C50.8017 82.1991 50.7239 82.4194 50.6721 82.6477V84.1514C50.7475 84.442 50.8701 84.723 51.0398 84.9934C51.2141 85.2595 51.4451 85.4778 51.7326 85.6481C52.0249 85.8184 52.3855 85.9041 52.8144 85.9041C53.1679 85.9041 53.4696 85.8413 53.7194 85.7168C53.9739 85.5879 54.179 85.4112 54.3345 85.1866C54.4948 84.962 54.6126 84.7023 54.688 84.4069C54.7634 84.1115 54.8011 83.7958 54.8011 83.4589ZM59.1918 80.0094V86.7584H57.8768V80.0094H59.1918ZM57.7777 78.2194C57.7777 78.032 57.8414 77.8745 57.9686 77.7451C58.1006 77.6163 58.2939 77.5519 58.5484 77.5519C58.7982 77.5519 58.9891 77.6163 59.1211 77.7451C59.2578 77.8745 59.3261 78.032 59.3261 78.2194C59.3261 78.3982 59.2578 78.552 59.1211 78.6808C58.9891 78.8059 58.7982 78.8682 58.5484 78.8682C58.2939 78.8682 58.1006 78.8059 57.9686 78.6808C57.8414 78.552 57.7777 78.3982 57.7777 78.2194ZM62.7126 77.1777V86.7584H61.398V77.1777H62.7126ZM66.2337 80.0094V86.7584H64.919V80.0094H66.2337ZM64.8201 78.2194C64.8201 78.032 64.8834 77.8745 65.0107 77.7451C65.1429 77.6163 65.3359 77.5519 65.5905 77.5519C65.8403 77.5519 66.031 77.6163 66.1631 77.7451C66.3001 77.8745 66.3682 78.032 66.3682 78.2194C66.3682 78.3982 66.3001 78.552 66.1631 78.6808C66.031 78.8059 65.8403 78.8682 65.5905 78.8682C65.3359 78.8682 65.1429 78.8059 65.0107 78.6808C64.8834 78.552 64.8201 78.3982 64.8201 78.2194ZM71.5364 80.0094V80.895H67.4005V80.0094H71.5364ZM68.8003 78.3689H70.1083V85.0866C70.1083 85.3154 70.1487 85.4879 70.2284 85.6044C70.3086 85.721 70.4124 85.7977 70.5397 85.8354C70.667 85.8727 70.8033 85.8913 70.95 85.8913C71.058 85.8913 71.1714 85.8828 71.289 85.8663C71.4115 85.8456 71.5038 85.8291 71.5648 85.8163L71.572 86.7584C71.4682 86.7877 71.3313 86.8143 71.1617 86.8393C70.997 86.8686 70.7967 86.8829 70.5608 86.8829C70.2404 86.8829 69.946 86.827 69.6769 86.7147C69.4084 86.6024 69.1943 86.4151 69.0338 86.1532C68.8781 85.8871 68.8003 85.5294 68.8003 85.0807V78.3689ZM75.2204 86.0601L77.3483 80.0094H78.748L75.6801 87.8C75.6089 87.9666 75.5148 88.1449 75.3971 88.3365C75.2837 88.5319 75.1377 88.7171 74.9585 88.8917C74.7793 89.0662 74.5627 89.2078 74.3081 89.3159C74.0583 89.4282 73.7591 89.4841 73.4104 89.4841C73.3066 89.4841 73.1744 89.4718 73.0146 89.4468C72.8541 89.4218 72.7407 89.401 72.6749 89.3845L72.6676 88.4488C72.7057 88.4531 72.7642 88.4568 72.8444 88.4611C72.9295 88.4696 72.9886 88.4739 73.0212 88.4739C73.318 88.4739 73.5702 88.4382 73.7778 88.3674C73.9853 88.3009 74.1597 88.187 74.3009 88.0246C74.4475 87.8665 74.5724 87.6483 74.6755 87.3694L75.2204 86.0601ZM73.6577 80.0094L75.6445 85.2489L75.9836 86.4651L75.0436 86.8893L72.2296 80.0094H73.6577Z" fill="white"/>
<path d="M154.453 87.8229L159.678 81.835H149.229L154.453 87.8229Z" fill="#EB9411"/>
<path d="M153.248 118.161H27.7543C17.7579 118.161 9.6543 125.31 9.6543 134.129V140.516C9.6543 149.335 17.7579 156.484 27.7543 156.484H153.248C163.244 156.484 171.348 149.335 171.348 140.516V134.129C171.348 125.31 163.244 118.161 153.248 118.161Z" fill="#04285F"/>
<path d="M29.4541 140.601V141.581H24.0029V140.601H29.4541ZM24.2786 132.499V141.581H22.9141V132.499H24.2786ZM28.7329 136.403V137.383H24.0029V136.403H28.7329ZM29.3834 132.499V133.484H24.0029V132.499H29.3834ZM32.367 132V141.581H31.052V132H32.367ZM35.8881 134.832V141.581H34.573V134.832H35.8881ZM34.474 133.042C34.474 132.854 34.5376 132.697 34.6649 132.567C34.7969 132.439 34.9901 132.374 35.2447 132.374C35.4945 132.374 35.6854 132.439 35.8174 132.567C35.9541 132.697 36.0224 132.854 36.0224 133.042C36.0224 133.22 35.9541 133.374 35.8174 133.503C35.6854 133.628 35.4945 133.69 35.2447 133.69C34.9901 133.69 34.7969 133.628 34.6649 133.503C34.5376 133.374 34.474 133.22 34.474 133.042ZM42.9443 134.832H44.132V141.437C44.132 142.032 43.9954 142.539 43.722 142.959C43.4486 143.379 43.0668 143.697 42.5766 143.914C42.0911 144.134 41.5302 144.244 40.8938 144.244C40.6299 144.244 40.3188 144.207 39.9606 144.132C39.607 144.061 39.2582 143.939 38.9142 143.764C38.5748 143.593 38.2896 143.363 38.0586 143.071L38.7445 142.385C39.065 142.726 39.3997 142.963 39.7484 143.097C40.102 143.23 40.4508 143.296 40.7949 143.296C41.2097 143.296 41.5679 143.227 41.8695 143.09C42.1712 142.953 42.4046 142.749 42.5695 142.479C42.7392 142.213 42.8241 141.884 42.8241 141.493V136.316L42.9443 134.832ZM37.6768 138.281V138.15C37.6768 137.634 37.7452 137.167 37.8819 136.747C38.0233 136.322 38.2236 135.959 38.4829 135.655C38.7469 135.352 39.065 135.118 39.4374 134.957C39.8098 134.79 40.2292 134.707 40.6959 134.707C41.1767 134.707 41.5962 134.782 41.9544 134.932C42.3173 135.077 42.6237 135.291 42.8735 135.574C43.1281 135.852 43.3284 136.189 43.4745 136.584C43.6206 136.979 43.722 137.426 43.7785 137.926V138.499C43.7267 138.994 43.6254 139.439 43.4745 139.834C43.3284 140.229 43.1281 140.566 42.8735 140.845C42.6237 141.123 42.3173 141.337 41.9544 141.487C41.5915 141.633 41.1673 141.705 40.6817 141.705C40.2245 141.705 39.8098 141.62 39.4374 141.45C39.0697 141.279 38.7539 141.04 38.49 140.732C38.226 140.425 38.0233 140.063 37.8819 139.647C37.7452 139.227 37.6768 138.772 37.6768 138.281ZM38.9849 138.15V138.281C38.9849 138.618 39.0226 138.934 39.098 139.229C39.1781 139.525 39.2983 139.784 39.4585 140.009C39.6236 140.233 39.8333 140.41 40.0878 140.539C40.3424 140.664 40.6464 140.726 40.9999 140.726C41.4336 140.726 41.7918 140.645 42.0746 140.483C42.3574 140.321 42.5813 140.106 42.7463 139.84C42.916 139.574 43.048 139.286 43.1422 138.974V137.47C43.0904 137.242 43.0103 137.021 42.9018 136.809C42.7981 136.593 42.6614 136.402 42.4917 136.235C42.3267 136.065 42.1217 135.93 41.8766 135.83C41.6315 135.73 41.344 135.68 41.0141 135.68C40.6558 135.68 40.3471 135.747 40.0878 135.88C39.8333 136.008 39.6236 136.187 39.4585 136.416C39.2983 136.641 39.1781 136.903 39.098 137.202C39.0226 137.497 38.9849 137.813 38.9849 138.15ZM47.54 134.832V141.581H46.2249V134.832H47.54ZM46.1259 133.042C46.1259 132.854 46.1895 132.697 46.3168 132.567C46.4488 132.439 46.642 132.374 46.8966 132.374C47.1463 132.374 47.3372 132.439 47.4692 132.567C47.6059 132.697 47.6743 132.854 47.6743 133.042C47.6743 133.22 47.6059 133.374 47.4692 133.503C47.3372 133.628 47.1463 133.69 46.8966 133.69C46.642 133.69 46.4488 133.628 46.3168 133.503C46.1895 133.374 46.1259 133.22 46.1259 133.042ZM49.6327 132H50.9478V140.271L50.8347 141.581H49.6327V132ZM56.1162 138.15V138.281C56.1162 138.772 56.0502 139.227 55.9183 139.647C55.7863 140.063 55.593 140.425 55.3385 140.732C55.084 141.04 54.7729 141.279 54.4052 141.45C54.0376 141.62 53.6157 141.705 53.1396 141.705C52.6541 141.705 52.2276 141.633 51.8599 141.487C51.497 141.337 51.1906 141.123 50.9408 140.845C50.6909 140.566 50.4906 140.229 50.3398 139.834C50.1937 139.439 50.0923 138.994 50.0358 138.499V137.926C50.0923 137.426 50.1937 136.979 50.3398 136.584C50.4906 136.189 50.6909 135.852 50.9408 135.574C51.1906 135.291 51.497 135.077 51.8599 134.932C52.2229 134.782 52.6447 134.707 53.1255 134.707C53.6063 134.707 54.0328 134.79 54.4052 134.957C54.7776 135.118 55.0887 135.352 55.3385 135.655C55.593 135.959 55.7863 136.322 55.9183 136.747C56.0502 137.167 56.1162 137.634 56.1162 138.15ZM54.8011 138.281V138.15C54.8011 137.813 54.7658 137.497 54.6951 137.202C54.6244 136.903 54.5113 136.641 54.3558 136.416C54.2002 136.187 53.9951 136.008 53.7406 135.88C53.4861 135.747 53.1726 135.68 52.8002 135.68C52.4703 135.68 52.1828 135.73 51.9377 135.83C51.6973 135.93 51.4923 136.065 51.3226 136.235C51.1529 136.402 51.0138 136.593 50.9054 136.809C50.8017 137.021 50.7239 137.242 50.6721 137.47V138.974C50.7475 139.264 50.8701 139.545 51.0398 139.816C51.2141 140.082 51.4451 140.3 51.7326 140.47C52.0249 140.641 52.3855 140.726 52.8144 140.726C53.1679 140.726 53.4696 140.664 53.7194 140.539C53.9739 140.41 54.179 140.233 54.3345 140.009C54.4948 139.784 54.6126 139.525 54.688 139.229C54.7634 138.934 54.8011 138.618 54.8011 138.281ZM59.1918 134.832V141.581H57.8768V134.832H59.1918ZM57.7777 133.042C57.7777 132.854 57.8414 132.697 57.9686 132.567C58.1006 132.439 58.2939 132.374 58.5484 132.374C58.7982 132.374 58.9891 132.439 59.1211 132.567C59.2578 132.697 59.3261 132.854 59.3261 133.042C59.3261 133.22 59.2578 133.374 59.1211 133.503C58.9891 133.628 58.7982 133.69 58.5484 133.69C58.2939 133.69 58.1006 133.628 57.9686 133.503C57.8414 133.374 57.7777 133.22 57.7777 133.042ZM62.7126 132V141.581H61.398V132H62.7126ZM66.2337 134.832V141.581H64.919V134.832H66.2337ZM64.8201 133.042C64.8201 132.854 64.8834 132.697 65.0107 132.567C65.1429 132.439 65.3359 132.374 65.5905 132.374C65.8403 132.374 66.031 132.439 66.1631 132.567C66.3001 132.697 66.3682 132.854 66.3682 133.042C66.3682 133.22 66.3001 133.374 66.1631 133.503C66.031 133.628 65.8403 133.69 65.5905 133.69C65.3359 133.69 65.1429 133.628 65.0107 133.503C64.8834 133.374 64.8201 133.22 64.8201 133.042ZM71.5364 134.832V135.717H67.4005V134.832H71.5364ZM68.8003 133.191H70.1083V139.909C70.1083 140.138 70.1487 140.31 70.2284 140.427C70.3086 140.543 70.4124 140.62 70.5397 140.658C70.667 140.695 70.8033 140.714 70.95 140.714C71.058 140.714 71.1714 140.705 71.289 140.689C71.4115 140.668 71.5038 140.651 71.5648 140.639L71.572 141.581C71.4682 141.61 71.3313 141.637 71.1617 141.662C70.997 141.691 70.7967 141.705 70.5608 141.705C70.2404 141.705 69.946 141.649 69.6769 141.537C69.4084 141.425 69.1943 141.237 69.0338 140.975C68.8781 140.709 68.8003 140.352 68.8003 139.903V133.191ZM75.2204 140.882L77.3483 134.832H78.748L75.6801 142.622C75.6089 142.789 75.5148 142.967 75.3971 143.159C75.2837 143.354 75.1377 143.539 74.9585 143.714C74.7793 143.889 74.5627 144.03 74.3081 144.138C74.0583 144.25 73.7591 144.306 73.4104 144.306C73.3066 144.306 73.1744 144.294 73.0146 144.269C72.8541 144.244 72.7407 144.223 72.6749 144.207L72.6676 143.271C72.7057 143.275 72.7642 143.279 72.8444 143.283C72.9295 143.292 72.9886 143.296 73.0212 143.296C73.318 143.296 73.5702 143.26 73.7778 143.19C73.9853 143.123 74.1597 143.009 74.3009 142.847C74.4475 142.689 74.5724 142.471 74.6755 142.192L75.2204 140.882ZM73.6577 134.832L75.6445 140.071L75.9836 141.287L75.0436 141.712L72.2296 134.832H73.6577Z" fill="white"/>
<path d="M154.453 142.645L159.678 136.657H149.229L154.453 142.645Z" fill="#EB9411"/>
<path d="M177.983 0.266602H3.01676C1.5173 0.266602 0.301758 1.33895 0.301758 2.66176V162.339C0.301758 163.662 1.5173 164.734 3.01676 164.734H177.983C179.483 164.734 180.698 163.662 180.698 162.339V2.66176C180.698 1.33895 179.483 0.266602 177.983 0.266602Z" stroke="#9747FF" stroke-dasharray="10 5"/>
</g>
<defs>
<clipPath id="clip0_268_8">
<rect width="181" height="165" fill="white"/>
</clipPath>
</defs>
</svg>
