<svg width="238" height="224" viewBox="0 0 238 224" fill="none" xmlns="http://www.w3.org/2000/svg">
<path d="M160.717 5.5625H142.077C141.19 5.5625 140.338 5.89437 139.711 6.48511C139.083 7.07585 138.73 7.87707 138.73 8.7125V11.7558C138.73 12.1694 138.817 12.579 138.985 12.9612C139.153 13.3434 139.4 13.6906 139.711 13.9831C140.338 14.5739 141.19 14.9057 142.077 14.9057H160.717C161.156 14.9057 161.591 14.8243 161.997 14.666C162.404 14.5077 162.772 14.2756 163.083 13.9831C163.394 13.6906 163.641 13.3434 163.809 12.9612C163.977 12.579 164.064 12.1694 164.064 11.7558V8.7125C164.064 7.87707 163.711 7.07585 163.083 6.48511C162.456 5.89437 161.604 5.5625 160.717 5.5625Z" fill="#8F9799"/>
<path d="M182.017 21.7328V205.542C182.017 212.501 176.023 218.142 168.629 218.142H69.3719C61.9781 218.142 55.9844 212.501 55.9844 205.542V21.7328C55.9844 14.7739 61.9781 9.13281 69.3719 9.13281H168.629C176.023 9.13281 182.017 14.7739 182.017 21.7328Z" fill="#464A4C"/>
<path d="M172.757 29.4064V182.518C172.757 185.997 169.76 188.818 166.063 188.818H71.9369C68.24 188.818 65.2432 185.997 65.2432 182.518V29.4064C65.2432 25.927 68.24 23.1064 71.9369 23.1064H166.063C169.76 23.1064 172.757 25.927 172.757 29.4064Z" fill="#CAD6D8"/>
<path d="M65.2432 149.04V28.5402C65.2432 25.5389 67.9518 23.1064 71.2936 23.1064H144.424L65.2432 149.04Z" fill="#F4F9F9"/>
<path d="M109.37 209.135H128.63C131.958 209.135 134.655 206.597 134.655 203.465V203.258C134.655 200.126 131.958 197.588 128.63 197.588H109.37C106.043 197.588 103.346 200.126 103.346 203.258V203.465C103.346 206.597 106.043 209.135 109.37 209.135Z" fill="#8F9799"/>
</svg>
