<svg width="142" height="113" viewBox="0 0 142 113" fill="none" xmlns="http://www.w3.org/2000/svg">
<path d="M91.7087 56.5003C106.5 56.5003 118.334 65.917 118.334 77.6878C118.334 81.8312 116.854 85.7391 114.251 88.9878L132.475 103.584L124.25 110.128L105.79 95.6737C101.708 97.6982 96.8562 98.8753 91.7087 98.8753C76.917 98.8753 65.0837 89.4587 65.0837 77.6878C65.0837 65.917 76.917 56.5003 91.7087 56.5003ZM91.7087 65.917C87.7857 65.917 84.0234 67.1571 81.2494 69.3646C78.4754 71.5721 76.917 74.566 76.917 77.6878C76.917 80.8096 78.4754 83.8036 81.2494 86.0111C84.0234 88.2185 87.7857 89.4587 91.7087 89.4587C95.6317 89.4587 99.394 88.2185 102.168 86.0111C104.942 83.8036 106.5 80.8096 106.5 77.6878C106.5 74.566 104.942 71.5721 102.168 69.3646C99.394 67.1571 95.6317 65.917 91.7087 65.917ZM76.917 18.8337V56.5003L62.1253 45.9066L47.3337 56.5003V18.8337H35.5003V94.167H59.167C62.362 97.9807 66.4445 101.229 71.1778 103.584H35.5003C32.3619 103.584 29.3521 102.592 27.1329 100.826C24.9137 99.0596 23.667 96.6645 23.667 94.167V18.8337C23.667 16.3362 24.9137 13.941 27.1329 12.1751C29.3521 10.4091 32.3619 9.41699 35.5003 9.41699H106.5C109.639 9.41699 112.649 10.4091 114.868 12.1751C117.087 13.941 118.334 16.3362 118.334 18.8337V55.6057C114.902 53.0162 110.938 50.8974 106.5 49.4378V18.8337H76.917Z" fill="#254D88"/>
</svg>
