<svg width="129" height="147" viewBox="0 0 129 147" fill="none" xmlns="http://www.w3.org/2000/svg">
<path d="M64.5 4.32353C64.5 3.17686 64.1003 2.07715 63.3887 1.26633C62.6772 0.455514 61.7121 0 60.7059 0C59.6996 0 58.7346 0.455514 58.023 1.26633C57.3115 2.07715 56.9118 3.17686 56.9118 4.32353V8.64706H20.8676C15.3332 8.64706 10.0254 11.1524 6.11199 15.6119C2.19855 20.0714 0 26.1198 0 32.4265V88.6496C0 94.9563 2.19855 101.005 6.11199 105.464C10.0254 109.924 15.3332 112.429 20.8676 112.429H34.6479L23.4021 131.651C23.1256 132.124 22.9334 132.654 22.8366 133.211C22.7397 133.768 22.7401 134.341 22.8377 134.898C22.9353 135.455 23.1282 135.984 23.4054 136.456C23.6825 136.928 24.0385 137.333 24.4531 137.648C24.8676 137.963 25.3326 138.182 25.8214 138.293C26.3102 138.403 26.8133 138.403 27.302 138.291C27.7906 138.18 28.2553 137.96 28.6694 137.645C29.0835 137.329 29.439 136.923 29.7155 136.451L43.7689 112.429H60.7969V112.412H72.0882C73.6794 109.991 75.6994 107.977 78.0171 106.503C80.3347 105.028 82.8985 104.125 85.5422 103.851C83.4485 101.201 81.857 98.0865 80.8669 94.7035C79.8768 91.3205 79.5094 87.7412 79.7878 84.1892C80.0661 80.6372 80.9842 77.1887 82.4846 74.0591C83.985 70.9295 86.0356 68.1861 88.5082 66.0001C90.9809 63.8142 93.8225 62.2327 96.8556 61.3543C99.8887 60.476 103.048 60.3198 106.137 60.8954C109.225 61.471 112.176 62.7661 114.806 64.6997C117.435 66.6334 119.687 69.1641 121.419 72.1338V32.4351C121.417 26.1268 119.217 20.0776 115.303 15.617C111.388 11.1563 106.08 8.64935 100.544 8.64706H64.5V4.32353ZM22.7647 38.9118C22.7647 37.7651 23.1644 36.6654 23.876 35.8546C24.5875 35.0437 25.5526 34.5882 26.5588 34.5882H49.3235C50.3298 34.5882 51.2948 35.0437 52.0064 35.8546C52.7179 36.6654 53.1176 37.7651 53.1176 38.9118C53.1176 40.0584 52.7179 41.1581 52.0064 41.969C51.2948 42.7798 50.3298 43.2353 49.3235 43.2353H26.5588C25.5526 43.2353 24.5875 42.7798 23.876 41.969C23.1644 41.1581 22.7647 40.0584 22.7647 38.9118ZM26.5588 77.8408H56.9118C57.918 77.8408 58.8831 78.2963 59.5946 79.1072C60.3061 79.918 60.7059 81.0177 60.7059 82.1643C60.7059 83.311 60.3061 84.4107 59.5946 85.2215C58.8831 86.0324 57.918 86.4879 56.9118 86.4879H26.5588C25.5526 86.4879 24.5875 86.0324 23.876 85.2215C23.1644 84.4107 22.7647 83.311 22.7647 82.1643C22.7647 81.0177 23.1644 79.918 23.876 79.1072C24.5875 78.2963 25.5526 77.8408 26.5588 77.8408ZM26.5588 56.2232H64.5C65.5063 56.2232 66.4713 56.6787 67.1828 57.4895C67.8944 58.3003 68.2941 59.4 68.2941 60.5467C68.2941 61.6934 67.8944 62.7931 67.1828 63.6039C66.4713 64.4147 65.5063 64.8702 64.5 64.8702H26.5588C25.5526 64.8702 24.5875 64.4147 23.876 63.6039C23.1644 62.7931 22.7647 61.6934 22.7647 60.5467C22.7647 59.4 23.1644 58.3003 23.876 57.4895C24.5875 56.6787 25.5526 56.2232 26.5588 56.2232ZM117.618 86.4706C117.618 91.0573 116.019 95.4561 113.173 98.6994C110.326 101.943 106.466 103.765 102.441 103.765C98.4161 103.765 94.5559 101.943 91.7098 98.6994C88.8637 95.4561 87.2647 91.0573 87.2647 86.4706C87.2647 81.8839 88.8637 77.4851 91.7098 74.2418C94.5559 70.9985 98.4161 69.1765 102.441 69.1765C106.466 69.1765 110.326 70.9985 113.173 74.2418C116.019 77.4851 117.618 81.8839 117.618 86.4706ZM129 125.382C129 136.148 121.412 147 102.441 147C83.4706 147 75.8824 136.191 75.8824 125.382C75.8824 121.942 77.0816 118.643 79.2162 116.211C81.3508 113.778 84.2459 112.412 87.2647 112.412H117.618C120.636 112.412 123.532 113.778 125.666 116.211C127.801 118.643 129 121.942 129 125.382Z" fill="#254D88"/>
</svg>
