<svg width="125" height="118" viewBox="0 0 125 118" fill="none" xmlns="http://www.w3.org/2000/svg">
<path d="M62.5003 94.3997C49.4795 94.3997 37.9691 88.1064 31.2503 78.6664C31.4066 68.833 52.0837 63.4247 62.5003 63.4247C72.917 63.4247 93.5941 68.833 93.7503 78.6664C90.307 83.5064 85.6558 87.4729 80.2064 90.2165C74.7569 92.9601 68.6764 94.3967 62.5003 94.3997ZM62.5003 24.583C66.6443 24.583 70.6186 26.137 73.5489 28.9032C76.4791 31.6693 78.1253 35.4211 78.1253 39.333C78.1253 43.245 76.4791 46.9967 73.5489 49.7628C70.6186 52.529 66.6443 54.083 62.5003 54.083C58.3563 54.083 54.382 52.529 51.4518 49.7628C48.5215 46.9967 46.8753 43.245 46.8753 39.333C46.8753 35.4211 48.5215 31.6693 51.4518 28.9032C54.382 26.137 58.3563 24.583 62.5003 24.583ZM62.5003 9.83301C55.6606 9.83301 48.8879 11.1047 42.5689 13.5756C36.2499 16.0465 30.5082 19.668 25.6718 24.2336C15.9043 33.4541 10.417 45.9599 10.417 58.9997C10.417 72.0395 15.9043 84.5452 25.6718 93.7658C30.5082 98.3313 36.2499 101.953 42.5689 104.424C48.8879 106.895 55.6606 108.166 62.5003 108.166C76.3137 108.166 89.5613 102.986 99.3288 93.7658C109.096 84.5452 114.584 72.0395 114.584 58.9997C114.584 31.8105 91.1462 9.83301 62.5003 9.83301Z" fill="#254D88"/>
</svg>
