<svg width="166" height="139" viewBox="0 0 166 139" fill="none" xmlns="http://www.w3.org/2000/svg">
<g clip-path="url(#clip0_268_30)">
<path d="M153.814 6.03027H12.0537C9.20058 6.03027 6.8877 8.05519 6.8877 10.5531V32.3347C6.8877 34.8326 9.20058 36.8575 12.0537 36.8575H153.814C156.667 36.8575 158.98 34.8326 158.98 32.3347V10.5531C158.98 8.05519 156.667 6.03027 153.814 6.03027Z" fill="#A2D1EA"/>
<path d="M31.9434 23.0753C31.9434 22.8951 31.9111 22.7361 31.8466 22.5983C31.786 22.457 31.677 22.3298 31.5197 22.2167C31.3663 22.1036 31.1524 21.9959 30.8779 21.8934C30.6075 21.7909 30.2645 21.6867 29.8488 21.5807C29.4129 21.4676 29.0194 21.3422 28.6683 21.2044C28.3172 21.063 28.0165 20.9023 27.7662 20.7221C27.516 20.5419 27.3243 20.3352 27.1911 20.1019C27.0579 19.8687 26.9913 19.602 26.9913 19.3016C26.9913 19.0013 27.062 18.7239 27.2032 18.4695C27.3445 18.2151 27.5463 17.9943 27.8086 17.807C28.075 17.6162 28.3918 17.4678 28.7591 17.3618C29.1264 17.2558 29.536 17.2028 29.988 17.2028C30.6499 17.2028 31.2109 17.3141 31.671 17.5367C32.1351 17.7558 32.4883 18.0437 32.7304 18.4006C32.9726 18.7539 33.0937 19.132 33.0937 19.5348H31.9313C31.9313 19.2451 31.8607 18.9889 31.7194 18.7663C31.5782 18.5402 31.3643 18.3635 31.0777 18.2363C30.7912 18.1056 30.428 18.0402 29.988 18.0402C29.5723 18.0402 29.2293 18.095 28.9589 18.2045C28.6885 18.314 28.4866 18.4624 28.3535 18.6497C28.2243 18.837 28.1597 19.0508 28.1597 19.291C28.1597 19.4536 28.1981 19.602 28.2748 19.7362C28.3555 19.867 28.4786 19.9889 28.6441 20.1019C28.8136 20.215 29.0275 20.3192 29.2858 20.4146C29.5481 20.51 29.8609 20.6019 30.2241 20.6903C30.7246 20.8139 31.1564 20.9517 31.5197 21.1037C31.8829 21.2556 32.1816 21.427 32.4156 21.6178C32.6538 21.8051 32.8293 22.0188 32.9423 22.2591C33.0594 22.4958 33.1179 22.7644 33.1179 23.0647C33.1179 23.3792 33.0452 23.6636 32.8999 23.918C32.7546 24.1724 32.5468 24.3897 32.2764 24.57C32.006 24.7501 31.6811 24.8897 31.3017 24.9887C30.9264 25.0841 30.5066 25.1318 30.0425 25.1318C29.6349 25.1318 29.2333 25.0823 28.8378 24.9834C28.4463 24.8844 28.0891 24.736 27.7662 24.5381C27.4474 24.3403 27.1911 24.0965 26.9974 23.8067C26.8077 23.5135 26.7129 23.1743 26.7129 22.7891H27.8752C27.8752 23.0541 27.9337 23.282 28.0508 23.4728C28.1678 23.6601 28.3273 23.8156 28.529 23.9392C28.7349 24.0629 28.9669 24.1548 29.2252 24.2148C29.4876 24.2714 29.76 24.2996 30.0425 24.2996C30.4501 24.2996 30.7952 24.2502 31.0777 24.1512C31.3602 24.0523 31.5741 23.911 31.7194 23.7272C31.8688 23.5435 31.9434 23.3262 31.9434 23.0753ZM37.1559 25.1318C36.6996 25.1318 36.286 25.0646 35.9147 24.9304C35.5476 24.7926 35.2307 24.6 34.9642 24.3527C34.7021 24.1053 34.5003 23.812 34.3589 23.4728C34.2177 23.1336 34.147 22.7626 34.147 22.3598V22.1372C34.147 21.6708 34.2257 21.2556 34.3831 20.8917C34.5405 20.5242 34.7544 20.2133 35.0248 19.9588C35.2951 19.7044 35.602 19.5119 35.945 19.3811C36.288 19.2504 36.6431 19.185 37.0106 19.185C37.4786 19.185 37.8822 19.2557 38.2211 19.397C38.5645 19.5384 38.8448 19.7362 39.0628 19.9906C39.2808 20.2415 39.442 20.5383 39.5471 20.8811C39.6521 21.2203 39.7045 21.5913 39.7045 21.9941V22.434H34.813V21.6337H38.5845V21.5595C38.5683 21.3051 38.5077 21.0577 38.403 20.8175C38.3021 20.5772 38.1405 20.3793 37.9188 20.2238C37.6966 20.0684 37.3939 19.9906 37.0106 19.9906C36.7564 19.9906 36.5222 20.0383 36.3083 20.1337C36.0945 20.2256 35.9106 20.3634 35.7573 20.5472C35.604 20.7309 35.4849 20.9553 35.4002 21.2203C35.3154 21.4853 35.2731 21.7909 35.2731 22.1372V22.3598C35.2731 22.6319 35.3154 22.8881 35.4002 23.1283C35.489 23.3651 35.6161 23.5735 35.7814 23.7537C35.9512 23.9339 36.1547 24.0753 36.3931 24.1777C36.6352 24.2802 36.9097 24.3315 37.2162 24.3315C37.6119 24.3315 37.947 24.2608 38.2211 24.1194C38.4956 23.9781 38.736 23.7891 38.9416 23.5523L39.6197 24.024C39.4785 24.2113 39.2988 24.3897 39.0811 24.5593C38.8631 24.7289 38.5945 24.8668 38.2759 24.9728C37.9611 25.0788 37.5878 25.1318 37.1559 25.1318ZM44.8746 24.0452V21.0931C44.8746 20.8669 44.8219 20.6708 44.7172 20.5048C44.6163 20.3352 44.463 20.2044 44.2571 20.1126C44.0511 20.0207 43.7969 19.9747 43.4942 19.9747C43.2118 19.9747 42.9635 20.0171 42.7496 20.1019C42.5399 20.1868 42.3742 20.298 42.2534 20.4358C42.1363 20.5737 42.0777 20.7221 42.0777 20.8811H40.9577C40.9577 20.6761 41.0183 20.473 41.1392 20.2715C41.2605 20.0702 41.434 19.8882 41.66 19.7256C41.89 19.5596 42.1645 19.4288 42.4831 19.3334C42.8061 19.2345 43.1653 19.185 43.5607 19.185C44.037 19.185 44.4568 19.2557 44.8202 19.397C45.1873 19.5384 45.4738 19.7521 45.6798 20.0383C45.8895 20.321 45.9945 20.6761 45.9945 21.1037V23.7749C45.9945 23.9657 46.0128 24.1689 46.049 24.3844C46.0893 24.6 46.1478 24.7855 46.2246 24.941V25.0258H45.0561C44.9996 24.9127 44.9552 24.7625 44.9228 24.5753C44.8908 24.3844 44.8746 24.2078 44.8746 24.0452ZM45.0681 21.5489L45.0802 22.2379H43.9481C43.6296 22.2379 43.3447 22.2609 43.0947 22.3068C42.8443 22.3492 42.6346 22.4146 42.4652 22.5029C42.2957 22.5912 42.1666 22.7025 42.0777 22.8368C41.9889 22.9675 41.9444 23.1213 41.9444 23.2979C41.9444 23.4781 41.9909 23.6424 42.0836 23.7908C42.1765 23.9392 42.3157 24.0576 42.5013 24.1459C42.6911 24.2308 42.9232 24.2731 43.1977 24.2731C43.5407 24.2731 43.8434 24.2096 44.1055 24.0823C44.368 23.9551 44.576 23.7997 44.7292 23.6159C44.8866 23.4322 44.9713 23.2537 44.9834 23.0806L45.4618 23.5523C45.4335 23.7007 45.3567 23.865 45.2317 24.0452C45.1067 24.2254 44.939 24.3986 44.7292 24.5647C44.5233 24.7272 44.277 24.8632 43.9905 24.9728C43.7081 25.0788 43.3892 25.1318 43.0341 25.1318C42.5902 25.1318 42.2007 25.0558 41.8656 24.9039C41.5349 24.7519 41.2766 24.5488 41.0907 24.2943C40.9092 24.0364 40.8182 23.7484 40.8182 23.4304C40.8182 23.123 40.8871 22.8527 41.0242 22.6195C41.1616 22.3828 41.3593 22.1867 41.6176 22.0312C41.8759 21.8722 42.1865 21.7521 42.5499 21.6708C42.9132 21.5895 43.3186 21.5489 43.7666 21.5489H45.0681ZM48.8761 20.1921V25.0258H47.7561V19.291H48.8458L48.8761 20.1921ZM50.9222 19.2592L50.9163 20.1708C50.8234 20.1532 50.7345 20.1426 50.6498 20.1391C50.5692 20.132 50.4762 20.1284 50.3715 20.1284C50.1132 20.1284 49.8852 20.1638 49.6872 20.2345C49.4895 20.3051 49.3221 20.4041 49.1847 20.5313C49.0476 20.6585 48.9388 20.8104 48.8579 20.9871C48.7814 21.1602 48.7308 21.351 48.7067 21.5595L48.3919 21.7185C48.3919 21.3722 48.4301 21.0471 48.5069 20.7433C48.5875 20.4394 48.7108 20.1708 48.8761 19.9376C49.0414 19.7009 49.2515 19.5172 49.5057 19.3864C49.764 19.2522 50.0708 19.185 50.4259 19.185C50.5065 19.185 50.5995 19.1939 50.7045 19.2115C50.8092 19.2257 50.8819 19.2416 50.9222 19.2592ZM54.4578 24.3262C54.724 24.3262 54.9703 24.2785 55.1965 24.1831C55.4225 24.0876 55.6081 23.9569 55.7534 23.7908C55.8988 23.6212 55.9814 23.4286 56.0014 23.2131H57.067C57.047 23.5523 56.9158 23.8686 56.6737 24.1619C56.4353 24.4516 56.1226 24.6866 55.7352 24.8668C55.3477 25.0434 54.922 25.1318 54.4578 25.1318C53.9653 25.1318 53.5355 25.0558 53.1684 24.9039C52.805 24.7519 52.5023 24.5435 52.2602 24.2785C52.0222 24.0134 51.8424 23.7096 51.7215 23.3668C51.6045 23.0205 51.5459 22.6548 51.5459 22.2697V22.0471C51.5459 21.662 51.6045 21.298 51.7215 20.9553C51.8424 20.609 52.0222 20.3034 52.2602 20.0383C52.5023 19.7733 52.805 19.5649 53.1684 19.4129C53.5355 19.261 53.9653 19.185 54.4578 19.185C54.9703 19.185 55.4183 19.2769 55.8016 19.4606C56.1853 19.6408 56.486 19.8882 56.7036 20.2026C56.9258 20.5136 57.047 20.8669 57.067 21.2627H56.0014C55.9814 21.0259 55.9046 20.8122 55.7713 20.6214C55.6422 20.4306 55.4648 20.2786 55.2389 20.1656C55.0168 20.0489 54.7564 19.9906 54.4578 19.9906C54.1148 19.9906 53.8262 20.0507 53.592 20.1708C53.3619 20.2875 53.1784 20.4465 53.0413 20.6479C52.908 20.8457 52.8112 21.0666 52.7506 21.3104C52.6941 21.5506 52.6659 21.7962 52.6659 22.0471V22.2697C52.6659 22.5206 52.6941 22.7679 52.7506 23.0117C52.8071 23.2555 52.9018 23.4764 53.0351 23.6742C53.1725 23.8721 53.3561 24.0311 53.5861 24.1512C53.82 24.2678 54.1106 24.3262 54.4578 24.3262ZM59.4461 16.8848V25.0258H58.3261V16.8848H59.4461ZM59.1798 21.9411L58.7135 21.9252C58.7177 21.533 58.7845 21.1708 58.9133 20.8387C59.0428 20.503 59.2243 20.2115 59.4585 19.9641C59.6923 19.7168 59.9709 19.526 60.2936 19.3917C60.6208 19.2539 60.9817 19.185 61.3774 19.185C61.7001 19.185 61.9908 19.2239 62.2491 19.3016C62.5074 19.3758 62.7275 19.496 62.909 19.662C63.0946 19.8281 63.2358 20.0437 63.3329 20.3087C63.4297 20.5701 63.4779 20.8899 63.4779 21.268V25.0258H62.3521V21.2574C62.3521 20.957 62.3015 20.7168 62.2006 20.5365C62.0996 20.3528 61.9526 20.2203 61.7587 20.1391C61.5651 20.0542 61.3268 20.0118 61.0444 20.0118C60.7658 20.0118 60.5116 20.0631 60.2816 20.1656C60.0556 20.268 59.86 20.4094 59.6944 20.5896C59.5328 20.7698 59.4058 20.9765 59.3131 21.2097C59.2243 21.4394 59.1798 21.6832 59.1798 21.9411ZM68.2244 16.8848H69.3503V23.9127L69.2535 25.0258H68.2244V16.8848ZM73.7758 22.1107V22.222C73.7758 22.6389 73.7193 23.0259 73.6063 23.3827C73.493 23.7361 73.3277 24.0435 73.1097 24.305C72.8917 24.5664 72.6255 24.7696 72.3107 24.9145C71.9959 25.0593 71.6347 25.1318 71.2269 25.1318C70.8112 25.1318 70.4461 25.0699 70.1314 24.9463C69.8204 24.8191 69.5583 24.6371 69.3444 24.4004C69.1305 24.1636 68.9587 23.8774 68.8295 23.5417C68.7045 23.206 68.6177 22.828 68.5695 22.4075V21.9199C68.6177 21.4959 68.7045 21.116 68.8295 20.7804C68.9587 20.4447 69.1305 20.1585 69.3444 19.9218C69.5583 19.6815 69.8204 19.4995 70.1314 19.3758C70.442 19.2486 70.8033 19.185 71.2148 19.185C71.6267 19.185 71.9918 19.2557 72.3107 19.397C72.6296 19.5348 72.8959 19.7327 73.1097 19.9906C73.3277 20.2486 73.493 20.5577 73.6063 20.9182C73.7193 21.275 73.7758 21.6725 73.7758 22.1107ZM72.6496 22.222V22.1107C72.6496 21.8245 72.6193 21.556 72.559 21.3051C72.4984 21.0507 72.4016 20.8281 72.2684 20.6373C72.1351 20.4429 71.9594 20.291 71.7418 20.1814C71.5238 20.0684 71.2551 20.0118 70.9366 20.0118C70.6538 20.0118 70.4079 20.0542 70.1978 20.1391C69.9919 20.2238 69.8166 20.3387 69.6712 20.4835C69.5259 20.6249 69.4067 20.7874 69.3141 20.9712C69.2253 21.1514 69.1588 21.3386 69.1144 21.533V22.8103C69.1788 23.0577 69.2838 23.2962 69.4291 23.5258C69.5783 23.752 69.7763 23.9375 70.0222 24.0823C70.2726 24.2272 70.5811 24.2996 70.9486 24.2996C71.2513 24.2996 71.5096 24.2466 71.7235 24.1407C71.9415 24.0311 72.1168 23.8809 72.2501 23.6901C72.3875 23.4993 72.4884 23.2785 72.5528 23.0276C72.6176 22.7767 72.6496 22.5082 72.6496 22.222ZM76.9601 24.4321L78.7823 19.291H79.9808L77.3534 25.9109C77.2931 26.0522 77.2122 26.2042 77.1113 26.3667C77.0145 26.5328 76.8895 26.69 76.7359 26.8384C76.5826 26.9868 76.397 27.1069 76.179 27.1988C75.9651 27.2942 75.7089 27.3419 75.4103 27.3419C75.3214 27.3419 75.2085 27.3313 75.0714 27.3101C74.934 27.2889 74.8372 27.2713 74.7807 27.2571L74.7745 26.4621C74.8069 26.4656 74.8572 26.4692 74.9261 26.4727C74.9987 26.4798 75.049 26.4833 75.0773 26.4833C75.3314 26.4833 75.5474 26.4533 75.7251 26.3932C75.9028 26.3367 76.0519 26.2395 76.1731 26.1017C76.2982 25.9674 76.4053 25.7819 76.4938 25.5452L76.9601 24.4321ZM75.6221 19.291L77.3234 23.7431L77.6138 24.7766L76.8086 25.1371L74.3991 19.291H75.6221ZM85.1874 16.8848V25.0258H84.0674V16.8848H85.1874ZM84.9209 21.9411L84.4549 21.9252C84.4587 21.533 84.5255 21.1708 84.6546 20.8387C84.7838 20.503 84.9653 20.2115 85.1995 19.9641C85.4333 19.7168 85.7119 19.526 86.0346 19.3917C86.3618 19.2539 86.7231 19.185 87.1185 19.185C87.4412 19.185 87.7318 19.2239 87.9901 19.3016C88.2484 19.3758 88.4685 19.496 88.65 19.662C88.8356 19.8281 88.9768 20.0437 89.074 20.3087C89.1707 20.5701 89.2193 20.8899 89.2193 21.268V25.0258H88.0931V21.2574C88.0931 20.957 88.0428 20.7168 87.9419 20.5365C87.841 20.3528 87.6936 20.2203 87.4997 20.1391C87.3062 20.0542 87.0678 20.0118 86.7854 20.0118C86.5072 20.0118 86.2526 20.0631 86.0226 20.1656C85.7967 20.268 85.6011 20.4094 85.4354 20.5896C85.2742 20.7698 85.1468 20.9765 85.0541 21.2097C84.9653 21.4394 84.9209 21.6832 84.9209 21.9411ZM93.6142 25.1318C93.1582 25.1318 92.7446 25.0646 92.3733 24.9304C92.0058 24.7926 91.689 24.6 91.4228 24.3527C91.1603 24.1053 90.9585 23.812 90.8173 23.4728C90.6761 23.1336 90.6055 22.7626 90.6055 22.3598V22.1372C90.6055 21.6708 90.684 21.2556 90.8418 20.8917C90.9991 20.5242 91.213 20.2133 91.4834 19.9588C91.7537 19.7044 92.0606 19.5119 92.4036 19.3811C92.7466 19.2504 93.1017 19.185 93.4688 19.185C93.9372 19.185 94.3408 19.2557 94.6797 19.397C95.0228 19.5384 95.3034 19.7362 95.5211 19.9906C95.7391 20.2415 95.9006 20.5383 96.0057 20.8811C96.1104 21.2203 96.1631 21.5913 96.1631 21.9941V22.434H91.2716V21.6337H95.0431V21.5595C95.0269 21.3051 94.9663 21.0577 94.8612 20.8175C94.7603 20.5772 94.5991 20.3793 94.377 20.2238C94.1552 20.0684 93.8525 19.9906 93.4688 19.9906C93.2147 19.9906 92.9805 20.0383 92.7666 20.1337C92.5527 20.2256 92.3692 20.3634 92.2159 20.5472C92.0623 20.7309 91.9435 20.9553 91.8588 21.2203C91.774 21.4853 91.7317 21.7909 91.7317 22.1372V22.3598C91.7317 22.6319 91.774 22.8881 91.8588 23.1283C91.9473 23.3651 92.0747 23.5735 92.24 23.7537C92.4095 23.9339 92.6133 24.0753 92.8513 24.1777C93.0938 24.2802 93.3679 24.3315 93.6748 24.3315C94.0705 24.3315 94.4053 24.2608 94.6797 24.1194C94.9542 23.9781 95.1943 23.7891 95.4002 23.5523L96.0783 24.024C95.9368 24.2113 95.7574 24.3897 95.5394 24.5593C95.3214 24.7289 95.0531 24.8668 94.7341 24.9728C94.4194 25.0788 94.046 25.1318 93.6142 25.1318ZM101.333 24.0452V21.0931C101.333 20.8669 101.28 20.6708 101.175 20.5048C101.075 20.3352 100.921 20.2044 100.715 20.1126C100.51 20.0207 100.256 19.9747 99.9528 19.9747C99.6701 19.9747 99.4221 20.0171 99.2079 20.1019C98.9981 20.1868 98.8328 20.298 98.7116 20.4358C98.5945 20.5737 98.536 20.7221 98.536 20.8811H97.416C97.416 20.6761 97.4766 20.473 97.5978 20.2715C97.7187 20.0702 97.8923 19.8882 98.1182 19.7256C98.3483 19.5596 98.6227 19.4288 98.9417 19.3334C99.2647 19.2345 99.6239 19.185 100.019 19.185C100.496 19.185 100.915 19.2557 101.278 19.397C101.646 19.5384 101.932 19.7521 102.138 20.0383C102.348 20.321 102.453 20.6761 102.453 21.1037V23.7749C102.453 23.9657 102.471 24.1689 102.508 24.3844C102.548 24.6 102.606 24.7855 102.683 24.941V25.0258H101.515C101.458 24.9127 101.414 24.7625 101.381 24.5753C101.349 24.3844 101.333 24.2078 101.333 24.0452ZM101.527 21.5489L101.539 22.2379H100.407C100.088 22.2379 99.8033 22.2609 99.553 22.3068C99.3029 22.3492 99.0932 22.4146 98.9234 22.5029C98.754 22.5912 98.6248 22.7025 98.536 22.8368C98.4474 22.9675 98.403 23.1213 98.403 23.2979C98.403 23.4781 98.4492 23.6424 98.5422 23.7908C98.6348 23.9392 98.7743 24.0576 98.9599 24.1459C99.1497 24.2308 99.3815 24.2731 99.6559 24.2731C99.999 24.2731 100.302 24.2096 100.564 24.0823C100.827 23.9551 101.034 23.7997 101.188 23.6159C101.345 23.4322 101.43 23.2537 101.442 23.0806L101.92 23.5523C101.892 23.7007 101.815 23.865 101.69 24.0452C101.565 24.2254 101.398 24.3986 101.188 24.5647C100.982 24.7272 100.736 24.8632 100.449 24.9728C100.167 25.0788 99.8478 25.1318 99.4927 25.1318C99.0488 25.1318 98.6593 25.0558 98.3242 24.9039C97.9932 24.7519 97.7349 24.5488 97.5493 24.2943C97.3678 24.0364 97.2768 23.7484 97.2768 23.4304C97.2768 23.123 97.3454 22.8527 97.4828 22.6195C97.6199 22.3828 97.8175 22.1867 98.0758 22.0312C98.3341 21.8722 98.6451 21.7521 99.0081 21.6708C99.3715 21.5895 99.7772 21.5489 100.225 21.5489H101.527ZM105.432 16.8848V25.0258H104.305V16.8848H105.432ZM109.972 19.291V20.0437H106.43V19.291H109.972ZM107.629 17.8971H108.749V23.6053C108.749 23.7997 108.783 23.9463 108.852 24.0452C108.921 24.1442 109.009 24.2096 109.118 24.2413C109.227 24.2731 109.344 24.289 109.469 24.289C109.562 24.289 109.659 24.282 109.76 24.2678C109.865 24.2502 109.943 24.2361 109.996 24.2254L110.002 25.0258C109.913 25.0505 109.796 25.0735 109.651 25.0947C109.51 25.1194 109.338 25.1318 109.137 25.1318C108.862 25.1318 108.61 25.0841 108.38 24.9887C108.149 24.8932 107.966 24.7343 107.829 24.5116C107.696 24.2855 107.629 23.9816 107.629 23.6V17.8971ZM112.406 16.8848V25.0258H111.286V16.8848H112.406ZM112.139 21.9411L111.673 21.9252C111.677 21.533 111.744 21.1708 111.873 20.8387C112.002 20.503 112.183 20.2115 112.418 19.9641C112.652 19.7168 112.93 19.526 113.253 19.3917C113.58 19.2539 113.941 19.185 114.337 19.185C114.66 19.185 114.95 19.2239 115.208 19.3016C115.467 19.3758 115.687 19.496 115.868 19.662C116.054 19.8281 116.195 20.0437 116.292 20.3087C116.389 20.5701 116.437 20.8899 116.437 21.268V25.0258H115.311V21.2574C115.311 20.957 115.261 20.7168 115.16 20.5365C115.059 20.3528 114.912 20.2203 114.718 20.1391C114.524 20.0542 114.286 20.0118 114.004 20.0118C113.725 20.0118 113.471 20.0631 113.241 20.1656C113.015 20.268 112.819 20.4094 112.654 20.5896C112.492 20.7698 112.365 20.9765 112.272 21.2097C112.183 21.4394 112.139 21.6832 112.139 21.9411ZM122.31 20.3934V27.2306H121.184V19.291H122.213L122.31 20.3934ZM126.723 22.1107V22.222C126.723 22.6389 126.666 23.0259 126.553 23.3827C126.44 23.7361 126.275 24.0435 126.057 24.305C125.843 24.5664 125.579 24.7696 125.264 24.9145C124.949 25.0593 124.588 25.1318 124.18 25.1318C123.765 25.1318 123.397 25.0717 123.078 24.9516C122.76 24.8314 122.489 24.6565 122.267 24.4269C122.045 24.1972 121.868 23.9216 121.735 23.6C121.605 23.2785 121.517 22.9163 121.468 22.5135V21.9199C121.517 21.4959 121.608 21.116 121.74 20.7804C121.874 20.4447 122.049 20.1585 122.267 19.9218C122.489 19.6815 122.758 19.4995 123.072 19.3758C123.387 19.2486 123.75 19.185 124.162 19.185C124.574 19.185 124.939 19.2557 125.258 19.397C125.577 19.5348 125.845 19.7327 126.063 19.9906C126.281 20.2486 126.444 20.5577 126.553 20.9182C126.666 21.275 126.723 21.6725 126.723 22.1107ZM125.597 22.222V22.1107C125.597 21.8245 125.563 21.556 125.494 21.3051C125.426 21.0507 125.318 20.8281 125.173 20.6373C125.032 20.4429 124.85 20.291 124.628 20.1814C124.406 20.0684 124.142 20.0118 123.835 20.0118C123.553 20.0118 123.306 20.0542 123.097 20.1391C122.891 20.2238 122.715 20.3387 122.57 20.4835C122.425 20.6249 122.306 20.7874 122.213 20.9712C122.124 21.1514 122.057 21.3386 122.013 21.533V22.9057C122.094 23.1531 122.207 23.3863 122.352 23.6053C122.497 23.8209 122.691 23.9958 122.933 24.13C123.175 24.2608 123.48 24.3262 123.847 24.3262C124.15 24.3262 124.41 24.2714 124.628 24.1619C124.85 24.0488 125.032 23.8951 125.173 23.7007C125.318 23.5064 125.426 23.2838 125.494 23.0329C125.563 22.7785 125.597 22.5082 125.597 22.222ZM129.369 16.8848V25.0258H128.242V16.8848H129.369ZM135.029 24.0452V21.0931C135.029 20.8669 134.976 20.6708 134.871 20.5048C134.77 20.3352 134.617 20.2044 134.411 20.1126C134.206 20.0207 133.951 19.9747 133.648 19.9747C133.366 19.9747 133.118 20.0171 132.904 20.1019C132.694 20.1868 132.528 20.298 132.408 20.4358C132.29 20.5737 132.232 20.7221 132.232 20.8811H131.112C131.112 20.6761 131.173 20.473 131.294 20.2715C131.415 20.0702 131.588 19.8882 131.814 19.7256C132.044 19.5596 132.319 19.4288 132.638 19.3334C132.96 19.2345 133.319 19.185 133.715 19.185C134.192 19.185 134.611 19.2557 134.974 19.397C135.341 19.5384 135.628 19.7521 135.834 20.0383C136.044 20.321 136.149 20.6761 136.149 21.1037V23.7749C136.149 23.9657 136.167 24.1689 136.203 24.3844C136.244 24.6 136.302 24.7855 136.379 24.941V25.0258H135.211C135.154 24.9127 135.11 24.7625 135.077 24.5753C135.045 24.3844 135.029 24.2078 135.029 24.0452ZM135.223 21.5489L135.235 22.2379H134.103C133.784 22.2379 133.499 22.2609 133.249 22.3068C132.999 22.3492 132.789 22.4146 132.619 22.5029C132.45 22.5912 132.321 22.7025 132.232 22.8368C132.143 22.9675 132.099 23.1213 132.099 23.2979C132.099 23.4781 132.145 23.6424 132.238 23.7908C132.331 23.9392 132.47 24.0576 132.656 24.1459C132.845 24.2308 133.077 24.2731 133.352 24.2731C133.695 24.2731 133.998 24.2096 134.26 24.0823C134.522 23.9551 134.73 23.7997 134.883 23.6159C135.041 23.4322 135.126 23.2537 135.138 23.0806L135.616 23.5523C135.588 23.7007 135.511 23.865 135.386 24.0452C135.261 24.2254 135.094 24.3986 134.883 24.5647C134.678 24.7272 134.432 24.8632 134.145 24.9728C133.863 25.0788 133.544 25.1318 133.189 25.1318C132.744 25.1318 132.355 25.0558 132.02 24.9039C131.689 24.7519 131.431 24.5488 131.245 24.2943C131.064 24.0364 130.973 23.7484 130.973 23.4304C130.973 23.123 131.041 22.8527 131.179 22.6195C131.316 22.3828 131.513 22.1867 131.772 22.0312C132.03 21.8722 132.341 21.7521 132.704 21.6708C133.067 21.5895 133.473 21.5489 133.921 21.5489H135.223ZM139.03 20.5153V25.0258H137.91V19.291H138.97L139.03 20.5153ZM138.764 21.9411L138.298 21.9252C138.302 21.533 138.369 21.1708 138.498 20.8387C138.627 20.503 138.809 20.2115 139.043 19.9641C139.277 19.7168 139.555 19.526 139.878 19.3917C140.205 19.2539 140.566 19.185 140.962 19.185C141.284 19.185 141.575 19.2239 141.833 19.3016C142.092 19.3758 142.312 19.496 142.493 19.662C142.679 19.8281 142.82 20.0437 142.917 20.3087C143.014 20.5701 143.062 20.8899 143.062 21.268V25.0258H141.936V21.2574C141.936 20.957 141.886 20.7168 141.785 20.5365C141.684 20.3528 141.537 20.2203 141.343 20.1391C141.149 20.0542 140.911 20.0118 140.629 20.0118C140.35 20.0118 140.096 20.0631 139.866 20.1656C139.64 20.268 139.444 20.4094 139.279 20.5896C139.117 20.7698 138.99 20.9765 138.897 21.2097C138.809 21.4394 138.764 21.6832 138.764 21.9411Z" fill="#333333"/>
<path d="M153.814 53.9717H12.0537C9.20058 53.9717 6.8877 55.9966 6.8877 58.4945V80.2761C6.8877 82.774 9.20058 84.7989 12.0537 84.7989H153.814C156.667 84.7989 158.98 82.774 158.98 80.2761V58.4945C158.98 55.9966 156.667 53.9717 153.814 53.9717Z" fill="#47B5EF"/>
<path d="M31.9434 71.0166C31.9434 70.8366 31.9111 70.6774 31.8466 70.5396C31.786 70.3982 31.677 70.2713 31.5197 70.1582C31.3663 70.0452 31.1524 69.9372 30.8779 69.8347C30.6075 69.7322 30.2645 69.6282 29.8488 69.522C29.4129 69.409 29.0194 69.2835 28.6683 69.1457C28.3172 69.0043 28.0165 68.8436 27.7662 68.6636C27.516 68.4833 27.3243 68.2764 27.1911 68.0434C27.0579 67.81 26.9913 67.5435 26.9913 67.2431C26.9913 66.9428 27.062 66.6654 27.2032 66.411C27.3445 66.1565 27.5463 65.9358 27.8086 65.7485C28.075 65.5577 28.3918 65.4093 28.7591 65.3032C29.1264 65.197 29.536 65.1443 29.988 65.1443C30.6499 65.1443 31.2109 65.2555 31.671 65.4781C32.1351 65.6973 32.4883 65.9852 32.7304 66.3419C32.9726 66.6953 33.0937 67.0734 33.0937 67.4762H31.9313C31.9313 67.1865 31.8607 66.9305 31.7194 66.7076C31.5782 66.4815 31.3643 66.3048 31.0777 66.1776C30.7912 66.047 30.428 65.9816 29.988 65.9816C29.5723 65.9816 29.2293 66.0365 28.9589 66.1459C28.6885 66.2554 28.4866 66.4037 28.3535 66.5913C28.2243 66.7785 28.1597 66.9923 28.1597 67.2323C28.1597 67.3951 28.1981 67.5435 28.2748 67.6776C28.3555 67.8085 28.4786 67.9303 28.6441 68.0434C28.8136 68.1564 29.0275 68.2608 29.2858 68.356C29.5481 68.4513 29.8609 68.5433 30.2241 68.6316C30.7246 68.7553 31.1564 68.8931 31.5197 69.045C31.8829 69.197 32.1816 69.3682 32.4156 69.5591C32.6538 69.7464 32.8293 69.9601 32.9423 70.2004C33.0594 70.4371 33.1179 70.7058 33.1179 71.0061C33.1179 71.3206 33.0452 71.6049 32.8999 71.8594C32.7546 72.1139 32.5468 72.3313 32.2764 72.5113C32.006 72.6916 31.6811 72.8312 31.3017 72.9301C30.9264 73.0254 30.5066 73.0733 30.0425 73.0733C29.6349 73.0733 29.2333 73.0239 28.8378 72.9247C28.4463 72.8258 28.0891 72.6774 27.7662 72.4796C27.4474 72.2818 27.1911 72.0379 26.9974 71.7481C26.8077 71.4548 26.7129 71.1155 26.7129 70.7305H27.8752C27.8752 70.9955 27.9337 71.2235 28.0508 71.4144C28.1678 71.6016 28.3273 71.7569 28.529 71.8805C28.7349 72.0044 28.9669 72.0961 29.2252 72.1564C29.4876 72.2128 29.76 72.2411 30.0425 72.2411C30.4501 72.2411 30.7952 72.1917 31.0777 72.0928C31.3602 71.9936 31.5741 71.8525 31.7194 71.6685C31.8688 71.4849 31.9434 71.2675 31.9434 71.0166ZM37.1559 73.0733C36.6996 73.0733 36.286 73.0061 35.9147 72.8719C35.5476 72.7341 35.2307 72.5414 34.9642 72.2942C34.7021 72.0466 34.5003 71.7536 34.3589 71.4144C34.2177 71.0751 34.147 70.704 34.147 70.3011V70.0786C34.147 69.6122 34.2257 69.197 34.3831 68.8331C34.5405 68.4655 34.7544 68.1546 35.0248 67.9002C35.2951 67.646 35.602 67.4533 35.945 67.3224C36.288 67.1919 36.6431 67.1265 37.0106 67.1265C37.4786 67.1265 37.8822 67.197 38.2211 67.3384C38.5645 67.4798 38.8448 67.6776 39.0628 67.9321C39.2808 68.183 39.442 68.4797 39.5471 68.8225C39.6521 69.1617 39.7045 69.5326 39.7045 69.9354V70.3753H34.813V69.5751H38.5845V69.5009C38.5683 69.2464 38.5077 68.9992 38.403 68.7589C38.3021 68.5186 38.1405 68.3208 37.9188 68.1652C37.6966 68.0099 37.3939 67.9321 37.0106 67.9321C36.7564 67.9321 36.5222 67.9798 36.3083 68.075C36.0945 68.167 35.9106 68.3048 35.7573 68.4884C35.604 68.6723 35.4849 68.8967 35.4002 69.1617C35.3154 69.4267 35.2731 69.7322 35.2731 70.0786V70.3011C35.2731 70.5734 35.3154 70.8294 35.4002 71.0697C35.489 71.3064 35.6161 71.5151 35.7814 71.6951C35.9512 71.8754 36.1547 72.0168 36.3931 72.1193C36.6352 72.2215 36.9097 72.2728 37.2162 72.2728C37.6119 72.2728 37.947 72.2022 38.2211 72.0608C38.4956 71.9194 38.736 71.7303 38.9416 71.4937L39.6197 71.9655C39.4785 72.1528 39.2988 72.3313 39.0811 72.5007C38.8631 72.6705 38.5945 72.8083 38.2759 72.9141C37.9611 73.0202 37.5878 73.0733 37.1559 73.0733ZM44.8746 71.9866V69.0345C44.8746 68.8083 44.8219 68.6123 44.7172 68.4462C44.6163 68.2764 44.463 68.1459 44.2571 68.0539C44.0511 67.962 43.7969 67.9161 43.4942 67.9161C43.2118 67.9161 42.9635 67.9586 42.7496 68.0434C42.5399 68.1281 42.3742 68.2394 42.2534 68.3772C42.1363 68.5149 42.0777 68.6636 42.0777 68.8225H40.9577C40.9577 68.6175 41.0183 68.4142 41.1392 68.2128C41.2605 68.0114 41.434 67.8296 41.66 67.6671C41.89 67.5009 42.1645 67.3704 42.4831 67.2748C42.8061 67.1759 43.1653 67.1265 43.5607 67.1265C44.037 67.1265 44.4568 67.197 44.8202 67.3384C45.1873 67.4798 45.4738 67.6936 45.6798 67.9798C45.8895 68.2623 45.9945 68.6175 45.9945 69.045V71.7165C45.9945 71.907 46.0128 72.1103 46.049 72.3258C46.0893 72.5414 46.1478 72.7269 46.2246 72.8824V72.9672H45.0561C44.9996 72.8541 44.9552 72.7039 44.9228 72.5167C44.8908 72.3258 44.8746 72.1492 44.8746 71.9866ZM45.0681 69.4904L45.0802 70.1793H43.9481C43.6296 70.1793 43.3447 70.2022 43.0947 70.2481C42.8443 70.2906 42.6346 70.356 42.4652 70.4444C42.2957 70.5327 42.1666 70.644 42.0777 70.7781C41.9889 70.909 41.9444 71.0628 41.9444 71.2395C41.9444 71.4195 41.9909 71.5838 42.0836 71.7322C42.1765 71.8805 42.3157 71.999 42.5013 72.0873C42.6911 72.1721 42.9232 72.2146 43.1977 72.2146C43.5407 72.2146 43.8434 72.151 44.1055 72.0237C44.368 71.8965 44.576 71.7412 44.7292 71.5573C44.8866 71.3736 44.9713 71.1951 44.9834 71.0221L45.4618 71.4937C45.4335 71.642 45.3567 71.8063 45.2317 71.9866C45.1067 72.1669 44.939 72.34 44.7292 72.5061C44.5233 72.6687 44.277 72.8047 43.9905 72.9141C43.7081 73.0202 43.3892 73.0733 43.0341 73.0733C42.5902 73.0733 42.2007 72.9973 41.8656 72.8454C41.5349 72.6934 41.2766 72.4902 41.0907 72.2357C40.9092 71.9779 40.8182 71.6899 40.8182 71.3718C40.8182 71.0643 40.8871 70.7941 41.0242 70.5611C41.1616 70.3241 41.3593 70.1281 41.6176 69.9725C41.8759 69.8136 42.1865 69.6936 42.5499 69.6122C42.9132 69.5311 43.3186 69.4904 43.7666 69.4904H45.0681ZM48.8761 68.1335V72.9672H47.7561V67.2323H48.8458L48.8761 68.1335ZM50.9222 67.2006L50.9163 68.1121C50.8234 68.0946 50.7345 68.0841 50.6498 68.0805C50.5692 68.0735 50.4762 68.0699 50.3715 68.0699C50.1132 68.0699 49.8852 68.1052 49.6872 68.1757C49.4895 68.2466 49.3221 68.3455 49.1847 68.4727C49.0476 68.6 48.9388 68.7519 48.8579 68.9283C48.7814 69.1017 48.7308 69.2923 48.7067 69.5009L48.3919 69.6598C48.3919 69.3137 48.4301 68.9886 48.5069 68.6847C48.5875 68.3808 48.7108 68.1121 48.8761 67.879C49.0414 67.6424 49.2515 67.4584 49.5057 67.3279C49.764 67.1937 50.0708 67.1265 50.4259 67.1265C50.5065 67.1265 50.5995 67.1352 50.7045 67.153C50.8092 67.1672 50.8819 67.1828 50.9222 67.2006ZM54.4578 72.2676C54.724 72.2676 54.9703 72.2197 55.1965 72.1244C55.4225 72.0291 55.6081 71.8983 55.7534 71.7322C55.8988 71.5627 55.9814 71.37 56.0014 71.1544H57.067C57.047 71.4937 56.9158 71.8099 56.6737 72.1033C56.4353 72.3931 56.1226 72.628 55.7352 72.8083C55.3477 72.985 54.922 73.0733 54.4578 73.0733C53.9653 73.0733 53.5355 72.9973 53.1684 72.8454C52.805 72.6934 52.5023 72.4847 52.2602 72.2197C52.0222 71.955 51.8424 71.651 51.7215 71.3082C51.6045 70.9621 51.5459 70.5963 51.5459 70.211V69.9885C51.5459 69.6034 51.6045 69.2395 51.7215 68.8967C51.8424 68.5505 52.0222 68.2448 52.2602 67.9798C52.5023 67.7147 52.805 67.5064 53.1684 67.3544C53.5355 67.2024 53.9653 67.1265 54.4578 67.1265C54.9703 67.1265 55.4183 67.2184 55.8016 67.402C56.1853 67.5824 56.486 67.8296 56.7036 68.1441C56.9258 68.4549 57.047 68.8083 57.067 69.2042H56.0014C55.9814 68.9672 55.9046 68.7535 55.7713 68.5629C55.6422 68.372 55.4648 68.2201 55.2389 68.107C55.0168 67.9903 54.7564 67.9321 54.4578 67.9321C54.1148 67.9321 53.8262 67.9921 53.592 68.1121C53.3619 68.2288 53.1784 68.3877 53.0413 68.5891C52.908 68.7872 52.8112 69.0079 52.7506 69.2519C52.6941 69.4922 52.6659 69.7376 52.6659 69.9885V70.211C52.6659 70.4619 52.6941 70.7094 52.7506 70.953C52.8071 71.197 52.9018 71.4177 53.0351 71.6158C53.1725 71.8136 53.3561 71.9725 53.5861 72.0928C53.82 72.2092 54.1106 72.2676 54.4578 72.2676ZM59.4461 64.8262V72.9672H58.3261V64.8262H59.4461ZM59.1798 69.8826L58.7135 69.8667C58.7177 69.4744 58.7845 69.1123 58.9133 68.78C59.0428 68.4444 59.2243 68.1528 59.4585 67.9056C59.6923 67.6583 59.9709 67.4675 60.2936 67.333C60.6208 67.1952 60.9817 67.1265 61.3774 67.1265C61.7001 67.1265 61.9908 67.1654 62.2491 67.2431C62.5074 67.3173 62.7275 67.4373 62.909 67.6035C63.0946 67.7696 63.2358 67.9852 63.3329 68.2499C63.4297 68.5116 63.4779 68.8312 63.4779 69.2093V72.9672H62.3521V69.1988C62.3521 68.8985 62.3015 68.6582 62.2006 68.4779C62.0996 68.2942 61.9526 68.1616 61.7587 68.0805C61.5651 67.9957 61.3268 67.9532 61.0444 67.9532C60.7658 67.9532 60.5116 68.0045 60.2816 68.107C60.0556 68.2095 59.86 68.3506 59.6944 68.5309C59.5328 68.7112 59.4058 68.9178 59.3131 69.1512C59.2243 69.3806 59.1798 69.6245 59.1798 69.8826ZM68.2244 64.8262H69.3503V71.8543L69.2535 72.9672H68.2244V64.8262ZM73.7758 70.0521V70.1634C73.7758 70.5804 73.7193 70.9672 73.6063 71.3242C73.493 71.6776 73.3277 71.9848 73.1097 72.2462C72.8917 72.508 72.6255 72.7109 72.3107 72.8559C71.9959 73.0006 71.6347 73.0733 71.2269 73.0733C70.8112 73.0733 70.4461 73.0112 70.1314 72.8876C69.8204 72.7603 69.5583 72.5785 69.3444 72.3418C69.1305 72.1051 68.9587 71.8187 68.8295 71.4831C68.7045 71.1475 68.6177 70.7694 68.5695 70.3488V69.8612C68.6177 69.4373 68.7045 69.0574 68.8295 68.7218C68.9587 68.3862 69.1305 68.0998 69.3444 67.8631C69.5583 67.6228 69.8204 67.4409 70.1314 67.3173C70.442 67.1901 70.8033 67.1265 71.2148 67.1265C71.6267 67.1265 71.9918 67.197 72.3107 67.3384C72.6296 67.4762 72.8959 67.674 73.1097 67.9321C73.3277 68.1899 73.493 68.4993 73.6063 68.8596C73.7193 69.2166 73.7758 69.614 73.7758 70.0521ZM72.6496 70.1634V70.0521C72.6496 69.7659 72.6193 69.4973 72.559 69.2464C72.4984 68.992 72.4016 68.7694 72.2684 68.5786C72.1351 68.3844 71.9594 68.2324 71.7418 68.123C71.5238 68.0099 71.2551 67.9532 70.9366 67.9532C70.6538 67.9532 70.4079 67.9957 70.1978 68.0805C69.9919 68.1652 69.8166 68.2801 69.6712 68.4251C69.5259 68.5662 69.4067 68.7287 69.3141 68.9126C69.2253 69.0927 69.1588 69.2799 69.1144 69.4744V70.7516C69.1788 70.9992 69.2838 71.2377 69.4291 71.4671C69.5783 71.6933 69.7763 71.879 70.0222 72.0237C70.2726 72.1687 70.5811 72.2411 70.9486 72.2411C71.2513 72.2411 71.5096 72.188 71.7235 72.0819C71.9415 71.9725 72.1168 71.8223 72.2501 71.6314C72.3875 71.4409 72.4884 71.2199 72.5528 70.969C72.6176 70.7181 72.6496 70.4495 72.6496 70.1634ZM76.9601 72.3735L78.7823 67.2323H79.9808L77.3534 73.8524C77.2931 73.9935 77.2122 74.1455 77.1113 74.308C77.0145 74.4742 76.8895 74.6315 76.7359 74.7799C76.5826 74.9282 76.397 75.0483 76.179 75.1402C75.9651 75.2355 75.7089 75.2834 75.4103 75.2834C75.3214 75.2834 75.2085 75.2726 75.0714 75.2515C74.934 75.2304 74.8372 75.2126 74.7807 75.1984L74.7745 74.4036C74.8069 74.4069 74.8572 74.4105 74.9261 74.4142C74.9987 74.4211 75.049 74.4247 75.0773 74.4247C75.3314 74.4247 75.5474 74.3946 75.7251 74.3346C75.9028 74.2782 76.0519 74.1808 76.1731 74.043C76.2982 73.9088 76.4053 73.7234 76.4938 73.4867L76.9601 72.3735ZM75.6221 67.2323L77.3234 71.6845L77.6138 72.7181L76.8086 73.0784L74.3991 67.2323H75.6221ZM85.1874 64.8262V72.9672H84.0674V64.8262H85.1874ZM84.9209 69.8826L84.4549 69.8667C84.4587 69.4744 84.5255 69.1123 84.6546 68.78C84.7838 68.4444 84.9653 68.1528 85.1995 67.9056C85.4333 67.6583 85.7119 67.4675 86.0346 67.333C86.3618 67.1952 86.7231 67.1265 87.1185 67.1265C87.4412 67.1265 87.7318 67.1654 87.9901 67.2431C88.2484 67.3173 88.4685 67.4373 88.65 67.6035C88.8356 67.7696 88.9768 67.9852 89.074 68.2499C89.1707 68.5116 89.2193 68.8312 89.2193 69.2093V72.9672H88.0931V69.1988C88.0931 68.8985 88.0428 68.6582 87.9419 68.4779C87.841 68.2942 87.6936 68.1616 87.4997 68.0805C87.3062 67.9957 87.0678 67.9532 86.7854 67.9532C86.5072 67.9532 86.2526 68.0045 86.0226 68.107C85.7967 68.2095 85.6011 68.3506 85.4354 68.5309C85.2742 68.7112 85.1468 68.9178 85.0541 69.1512C84.9653 69.3806 84.9209 69.6245 84.9209 69.8826ZM93.6142 73.0733C93.1582 73.0733 92.7446 73.0061 92.3733 72.8719C92.0058 72.7341 91.689 72.5414 91.4228 72.2942C91.1603 72.0466 90.9585 71.7536 90.8173 71.4144C90.6761 71.0751 90.6055 70.704 90.6055 70.3011V70.0786C90.6055 69.6122 90.684 69.197 90.8418 68.8331C90.9991 68.4655 91.213 68.1546 91.4834 67.9002C91.7537 67.646 92.0606 67.4533 92.4036 67.3224C92.7466 67.1919 93.1017 67.1265 93.4688 67.1265C93.9372 67.1265 94.3408 67.197 94.6797 67.3384C95.0228 67.4798 95.3034 67.6776 95.5211 67.9321C95.7391 68.183 95.9006 68.4797 96.0057 68.8225C96.1104 69.1617 96.1631 69.5326 96.1631 69.9354V70.3753H91.2716V69.5751H95.0431V69.5009C95.0269 69.2464 94.9663 68.9992 94.8612 68.7589C94.7603 68.5186 94.5991 68.3208 94.377 68.1652C94.1552 68.0099 93.8525 67.9321 93.4688 67.9321C93.2147 67.9321 92.9805 67.9798 92.7666 68.075C92.5527 68.167 92.3692 68.3048 92.2159 68.4884C92.0623 68.6723 91.9435 68.8967 91.8588 69.1617C91.774 69.4267 91.7317 69.7322 91.7317 70.0786V70.3011C91.7317 70.5734 91.774 70.8294 91.8588 71.0697C91.9473 71.3064 92.0747 71.5151 92.24 71.6951C92.4095 71.8754 92.6133 72.0168 92.8513 72.1193C93.0938 72.2215 93.3679 72.2728 93.6748 72.2728C94.0705 72.2728 94.4053 72.2022 94.6797 72.0608C94.9542 71.9194 95.1943 71.7303 95.4002 71.4937L96.0783 71.9655C95.9368 72.1528 95.7574 72.3313 95.5394 72.5007C95.3214 72.6705 95.0531 72.8083 94.7341 72.9141C94.4194 73.0202 94.046 73.0733 93.6142 73.0733ZM101.333 71.9866V69.0345C101.333 68.8083 101.28 68.6123 101.175 68.4462C101.075 68.2764 100.921 68.1459 100.715 68.0539C100.51 67.962 100.256 67.9161 99.9528 67.9161C99.6701 67.9161 99.4221 67.9586 99.2079 68.0434C98.9981 68.1281 98.8328 68.2394 98.7116 68.3772C98.5945 68.5149 98.536 68.6636 98.536 68.8225H97.416C97.416 68.6175 97.4766 68.4142 97.5978 68.2128C97.7187 68.0114 97.8923 67.8296 98.1182 67.6671C98.3483 67.5009 98.6227 67.3704 98.9417 67.2748C99.2647 67.1759 99.6239 67.1265 100.019 67.1265C100.496 67.1265 100.915 67.197 101.278 67.3384C101.646 67.4798 101.932 67.6936 102.138 67.9798C102.348 68.2623 102.453 68.6175 102.453 69.045V71.7165C102.453 71.907 102.471 72.1103 102.508 72.3258C102.548 72.5414 102.606 72.7269 102.683 72.8824V72.9672H101.515C101.458 72.8541 101.414 72.7039 101.381 72.5167C101.349 72.3258 101.333 72.1492 101.333 71.9866ZM101.527 69.4904L101.539 70.1793H100.407C100.088 70.1793 99.8033 70.2022 99.553 70.2481C99.3029 70.2906 99.0932 70.356 98.9234 70.4444C98.754 70.5327 98.6248 70.644 98.536 70.7781C98.4474 70.909 98.403 71.0628 98.403 71.2395C98.403 71.4195 98.4492 71.5838 98.5422 71.7322C98.6348 71.8805 98.7743 71.999 98.9599 72.0873C99.1497 72.1721 99.3815 72.2146 99.6559 72.2146C99.999 72.2146 100.302 72.151 100.564 72.0237C100.827 71.8965 101.034 71.7412 101.188 71.5573C101.345 71.3736 101.43 71.1951 101.442 71.0221L101.92 71.4937C101.892 71.642 101.815 71.8063 101.69 71.9866C101.565 72.1669 101.398 72.34 101.188 72.5061C100.982 72.6687 100.736 72.8047 100.449 72.9141C100.167 73.0202 99.8478 73.0733 99.4927 73.0733C99.0488 73.0733 98.6593 72.9973 98.3242 72.8454C97.9932 72.6934 97.7349 72.4902 97.5493 72.2357C97.3678 71.9779 97.2768 71.6899 97.2768 71.3718C97.2768 71.0643 97.3454 70.7941 97.4828 70.5611C97.6199 70.3241 97.8175 70.1281 98.0758 69.9725C98.3341 69.8136 98.6451 69.6936 99.0081 69.6122C99.3715 69.5311 99.7772 69.4904 100.225 69.4904H101.527ZM105.432 64.8262V72.9672H104.305V64.8262H105.432ZM109.972 67.2323V67.9852H106.43V67.2323H109.972ZM107.629 65.8384H108.749V71.5467C108.749 71.7412 108.783 71.8877 108.852 71.9866C108.921 72.0855 109.009 72.151 109.118 72.1826C109.227 72.2146 109.344 72.2306 109.469 72.2306C109.562 72.2306 109.659 72.2233 109.76 72.2092C109.865 72.1917 109.943 72.1775 109.996 72.1669L110.002 72.9672C109.913 72.9919 109.796 73.0148 109.651 73.0362C109.51 73.0609 109.338 73.0733 109.137 73.0733C108.862 73.0733 108.61 73.0254 108.38 72.9301C108.149 72.8348 107.966 72.6756 107.829 72.4531C107.696 72.2269 107.629 71.923 107.629 71.5413V65.8384ZM112.406 64.8262V72.9672H111.286V64.8262H112.406ZM112.139 69.8826L111.673 69.8667C111.677 69.4744 111.744 69.1123 111.873 68.78C112.002 68.4444 112.183 68.1528 112.418 67.9056C112.652 67.6583 112.93 67.4675 113.253 67.333C113.58 67.1952 113.941 67.1265 114.337 67.1265C114.66 67.1265 114.95 67.1654 115.208 67.2431C115.467 67.3173 115.687 67.4373 115.868 67.6035C116.054 67.7696 116.195 67.9852 116.292 68.2499C116.389 68.5116 116.437 68.8312 116.437 69.2093V72.9672H115.311V69.1988C115.311 68.8985 115.261 68.6582 115.16 68.4779C115.059 68.2942 114.912 68.1616 114.718 68.0805C114.524 67.9957 114.286 67.9532 114.004 67.9532C113.725 67.9532 113.471 68.0045 113.241 68.107C113.015 68.2095 112.819 68.3506 112.654 68.5309C112.492 68.7112 112.365 68.9178 112.272 69.1512C112.183 69.3806 112.139 69.6245 112.139 69.8826ZM122.31 68.3349V75.1719H121.184V67.2323H122.213L122.31 68.3349ZM126.723 70.0521V70.1634C126.723 70.5804 126.666 70.9672 126.553 71.3242C126.44 71.6776 126.275 71.9848 126.057 72.2462C125.843 72.508 125.579 72.7109 125.264 72.8559C124.949 73.0006 124.588 73.0733 124.18 73.0733C123.765 73.0733 123.397 73.013 123.078 72.893C122.76 72.7727 122.489 72.5978 122.267 72.3684C122.045 72.1386 121.868 71.863 121.735 71.5413C121.605 71.2199 121.517 70.8577 121.468 70.4549V69.8612C121.517 69.4373 121.608 69.0574 121.74 68.7218C121.874 68.3862 122.049 68.0998 122.267 67.8631C122.489 67.6228 122.758 67.4409 123.072 67.3173C123.387 67.1901 123.75 67.1265 124.162 67.1265C124.574 67.1265 124.939 67.197 125.258 67.3384C125.577 67.4762 125.845 67.674 126.063 67.9321C126.281 68.1899 126.444 68.4993 126.553 68.8596C126.666 69.2166 126.723 69.614 126.723 70.0521ZM125.597 70.1634V70.0521C125.597 69.7659 125.563 69.4973 125.494 69.2464C125.426 68.992 125.318 68.7694 125.173 68.5786C125.032 68.3844 124.85 68.2324 124.628 68.123C124.406 68.0099 124.142 67.9532 123.835 67.9532C123.553 67.9532 123.306 67.9957 123.097 68.0805C122.891 68.1652 122.715 68.2801 122.57 68.4251C122.425 68.5662 122.306 68.7287 122.213 68.9126C122.124 69.0927 122.057 69.2799 122.013 69.4744V70.8472C122.094 71.0944 122.207 71.3275 122.352 71.5467C122.497 71.7623 122.691 71.9372 122.933 72.0714C123.175 72.2022 123.48 72.2676 123.847 72.2676C124.15 72.2676 124.41 72.2128 124.628 72.1033C124.85 71.9902 125.032 71.8365 125.173 71.642C125.318 71.4478 125.426 71.2253 125.494 70.9744C125.563 70.72 125.597 70.4495 125.597 70.1634ZM129.369 64.8262V72.9672H128.242V64.8262H129.369ZM135.029 71.9866V69.0345C135.029 68.8083 134.976 68.6123 134.871 68.4462C134.77 68.2764 134.617 68.1459 134.411 68.0539C134.206 67.962 133.951 67.9161 133.648 67.9161C133.366 67.9161 133.118 67.9586 132.904 68.0434C132.694 68.1281 132.528 68.2394 132.408 68.3772C132.29 68.5149 132.232 68.6636 132.232 68.8225H131.112C131.112 68.6175 131.173 68.4142 131.294 68.2128C131.415 68.0114 131.588 67.8296 131.814 67.6671C132.044 67.5009 132.319 67.3704 132.638 67.2748C132.96 67.1759 133.319 67.1265 133.715 67.1265C134.192 67.1265 134.611 67.197 134.974 67.3384C135.341 67.4798 135.628 67.6936 135.834 67.9798C136.044 68.2623 136.149 68.6175 136.149 69.045V71.7165C136.149 71.907 136.167 72.1103 136.203 72.3258C136.244 72.5414 136.302 72.7269 136.379 72.8824V72.9672H135.211C135.154 72.8541 135.11 72.7039 135.077 72.5167C135.045 72.3258 135.029 72.1492 135.029 71.9866ZM135.223 69.4904L135.235 70.1793H134.103C133.784 70.1793 133.499 70.2022 133.249 70.2481C132.999 70.2906 132.789 70.356 132.619 70.4444C132.45 70.5327 132.321 70.644 132.232 70.7781C132.143 70.909 132.099 71.0628 132.099 71.2395C132.099 71.4195 132.145 71.5838 132.238 71.7322C132.331 71.8805 132.47 71.999 132.656 72.0873C132.845 72.1721 133.077 72.2146 133.352 72.2146C133.695 72.2146 133.998 72.151 134.26 72.0237C134.522 71.8965 134.73 71.7412 134.883 71.5573C135.041 71.3736 135.126 71.1951 135.138 71.0221L135.616 71.4937C135.588 71.642 135.511 71.8063 135.386 71.9866C135.261 72.1669 135.094 72.34 134.883 72.5061C134.678 72.6687 134.432 72.8047 134.145 72.9141C133.863 73.0202 133.544 73.0733 133.189 73.0733C132.744 73.0733 132.355 72.9973 132.02 72.8454C131.689 72.6934 131.431 72.4902 131.245 72.2357C131.064 71.9779 130.973 71.6899 130.973 71.3718C130.973 71.0643 131.041 70.7941 131.179 70.5611C131.316 70.3241 131.513 70.1281 131.772 69.9725C132.03 69.8136 132.341 69.6936 132.704 69.6122C133.067 69.5311 133.473 69.4904 133.921 69.4904H135.223ZM139.03 68.4568V72.9672H137.91V67.2323H138.97L139.03 68.4568ZM138.764 69.8826L138.298 69.8667C138.302 69.4744 138.369 69.1123 138.498 68.78C138.627 68.4444 138.809 68.1528 139.043 67.9056C139.277 67.6583 139.555 67.4675 139.878 67.333C140.205 67.1952 140.566 67.1265 140.962 67.1265C141.284 67.1265 141.575 67.1654 141.833 67.2431C142.092 67.3173 142.312 67.4373 142.493 67.6035C142.679 67.7696 142.82 67.9852 142.917 68.2499C143.014 68.5116 143.062 68.8312 143.062 69.2093V72.9672H141.936V69.1988C141.936 68.8985 141.886 68.6582 141.785 68.4779C141.684 68.2942 141.537 68.1616 141.343 68.0805C141.149 67.9957 140.911 67.9532 140.629 67.9532C140.35 67.9532 140.096 68.0045 139.866 68.107C139.64 68.2095 139.444 68.3506 139.279 68.5309C139.117 68.7112 138.99 68.9178 138.897 69.1512C138.809 69.3806 138.764 69.6245 138.764 69.8826Z" fill="#333333"/>
<path d="M153.814 101.913H12.0537C9.20058 101.913 6.8877 103.938 6.8877 106.436V128.218C6.8877 130.715 9.20058 132.74 12.0537 132.74H153.814C156.667 132.74 158.98 130.715 158.98 128.218V106.436C158.98 103.938 156.667 101.913 153.814 101.913Z" fill="#0A8FD6"/>
<path d="M31.9434 118.958C31.9434 118.778 31.9111 118.619 31.8466 118.481C31.786 118.34 31.677 118.213 31.5197 118.1C31.3663 117.987 31.1524 117.879 30.8779 117.776C30.6075 117.674 30.2645 117.57 29.8488 117.463C29.4129 117.35 29.0194 117.225 28.6683 117.087C28.3172 116.946 28.0165 116.785 27.7662 116.605C27.516 116.425 27.3243 116.218 27.1911 115.985C27.0579 115.751 26.9913 115.485 26.9913 115.185C26.9913 114.884 27.062 114.607 27.2032 114.352C27.3445 114.098 27.5463 113.877 27.8086 113.69C28.075 113.499 28.3918 113.351 28.7591 113.245C29.1264 113.138 29.536 113.086 29.988 113.086C30.6499 113.086 31.2109 113.197 31.671 113.419C32.1351 113.639 32.4883 113.927 32.7304 114.283C32.9726 114.637 33.0937 115.015 33.0937 115.418H31.9313C31.9313 115.128 31.8607 114.872 31.7194 114.649C31.5782 114.423 31.3643 114.246 31.0777 114.119C30.7912 113.988 30.428 113.923 29.988 113.923C29.5723 113.923 29.2293 113.978 28.9589 114.087C28.6885 114.197 28.4866 114.345 28.3535 114.533C28.2243 114.72 28.1597 114.934 28.1597 115.174C28.1597 115.337 28.1981 115.485 28.2748 115.619C28.3555 115.75 28.4786 115.872 28.6441 115.985C28.8136 116.098 29.0275 116.202 29.2858 116.297C29.5481 116.393 29.8609 116.485 30.2241 116.573C30.7246 116.697 31.1564 116.834 31.5197 116.986C31.8829 117.138 32.1816 117.31 32.4156 117.501C32.6538 117.688 32.8293 117.902 32.9423 118.142C33.0594 118.379 33.1179 118.647 33.1179 118.948C33.1179 119.262 33.0452 119.546 32.8999 119.801C32.7546 120.055 32.5468 120.273 32.2764 120.453C32.006 120.633 31.6811 120.773 31.3017 120.871C30.9264 120.967 30.5066 121.015 30.0425 121.015C29.6349 121.015 29.2333 120.965 28.8378 120.866C28.4463 120.767 28.0891 120.619 27.7662 120.421C27.4474 120.223 27.1911 119.979 26.9974 119.69C26.8077 119.396 26.7129 119.057 26.7129 118.672H27.8752C27.8752 118.937 27.9337 119.165 28.0508 119.356C28.1678 119.543 28.3273 119.698 28.529 119.822C28.7349 119.946 28.9669 120.037 29.2252 120.098C29.4876 120.154 29.76 120.183 30.0425 120.183C30.4501 120.183 30.7952 120.133 31.0777 120.034C31.3602 119.935 31.5741 119.794 31.7194 119.61C31.8688 119.426 31.9434 119.209 31.9434 118.958ZM37.1559 121.015C36.6996 121.015 36.286 120.947 35.9147 120.813C35.5476 120.675 35.2307 120.483 34.9642 120.236C34.7021 119.988 34.5003 119.695 34.3589 119.356C34.2177 119.017 34.147 118.645 34.147 118.243V118.02C34.147 117.554 34.2257 117.138 34.3831 116.774C34.5405 116.407 34.7544 116.096 35.0248 115.842C35.2951 115.587 35.602 115.395 35.945 115.264C36.288 115.133 36.6431 115.068 37.0106 115.068C37.4786 115.068 37.8822 115.138 38.2211 115.28C38.5645 115.421 38.8448 115.619 39.0628 115.874C39.2808 116.124 39.442 116.421 39.5471 116.764C39.6521 117.103 39.7045 117.474 39.7045 117.877V118.317H34.813V117.516H38.5845V117.442C38.5683 117.188 38.5077 116.941 38.403 116.7C38.3021 116.46 38.1405 116.262 37.9188 116.107C37.6966 115.951 37.3939 115.874 37.0106 115.874C36.7564 115.874 36.5222 115.921 36.3083 116.016C36.0945 116.108 35.9106 116.246 35.7573 116.43C35.604 116.614 35.4849 116.838 35.4002 117.103C35.3154 117.368 35.2731 117.674 35.2731 118.02V118.243C35.2731 118.515 35.3154 118.771 35.4002 119.011C35.489 119.248 35.6161 119.456 35.7814 119.636C35.9512 119.817 36.1547 119.958 36.3931 120.061C36.6352 120.163 36.9097 120.214 37.2162 120.214C37.6119 120.214 37.947 120.144 38.2211 120.002C38.4956 119.861 38.736 119.672 38.9416 119.435L39.6197 119.907C39.4785 120.094 39.2988 120.273 39.0811 120.442C38.8631 120.612 38.5945 120.75 38.2759 120.856C37.9611 120.962 37.5878 121.015 37.1559 121.015ZM44.8746 119.928V116.976C44.8746 116.75 44.8219 116.554 44.7172 116.388C44.6163 116.218 44.463 116.087 44.2571 115.995C44.0511 115.903 43.7969 115.858 43.4942 115.858C43.2118 115.858 42.9635 115.9 42.7496 115.985C42.5399 116.07 42.3742 116.181 42.2534 116.319C42.1363 116.456 42.0777 116.605 42.0777 116.764H40.9577C40.9577 116.559 41.0183 116.356 41.1392 116.154C41.2605 115.953 41.434 115.771 41.66 115.608C41.89 115.442 42.1645 115.312 42.4831 115.216C42.8061 115.117 43.1653 115.068 43.5607 115.068C44.037 115.068 44.4568 115.138 44.8202 115.28C45.1873 115.421 45.4738 115.635 45.6798 115.921C45.8895 116.204 45.9945 116.559 45.9945 116.986V119.658C45.9945 119.848 46.0128 120.052 46.049 120.267C46.0893 120.483 46.1478 120.668 46.2246 120.824V120.909H45.0561C44.9996 120.796 44.9552 120.645 44.9228 120.458C44.8908 120.267 44.8746 120.091 44.8746 119.928ZM45.0681 117.432L45.0802 118.121H43.9481C43.6296 118.121 43.3447 118.144 43.0947 118.189C42.8443 118.232 42.6346 118.297 42.4652 118.386C42.2957 118.474 42.1666 118.585 42.0777 118.72C41.9889 118.85 41.9444 119.004 41.9444 119.181C41.9444 119.361 41.9909 119.525 42.0836 119.674C42.1765 119.822 42.3157 119.94 42.5013 120.029C42.6911 120.113 42.9232 120.156 43.1977 120.156C43.5407 120.156 43.8434 120.092 44.1055 119.965C44.368 119.838 44.576 119.683 44.7292 119.499C44.8866 119.315 44.9713 119.137 44.9834 118.963L45.4618 119.435C45.4335 119.583 45.3567 119.748 45.2317 119.928C45.1067 120.108 44.939 120.281 44.7292 120.448C44.5233 120.61 44.277 120.746 43.9905 120.856C43.7081 120.962 43.3892 121.015 43.0341 121.015C42.5902 121.015 42.2007 120.939 41.8656 120.787C41.5349 120.635 41.2766 120.432 41.0907 120.177C40.9092 119.919 40.8182 119.631 40.8182 119.313C40.8182 119.006 40.8871 118.736 41.0242 118.502C41.1616 118.265 41.3593 118.069 41.6176 117.914C41.8759 117.755 42.1865 117.635 42.5499 117.554C42.9132 117.472 43.3186 117.432 43.7666 117.432H45.0681ZM48.8761 116.075V120.909H47.7561V115.174H48.8458L48.8761 116.075ZM50.9222 115.142L50.9163 116.054C50.8234 116.036 50.7345 116.025 50.6498 116.022C50.5692 116.015 50.4762 116.011 50.3715 116.011C50.1132 116.011 49.8852 116.047 49.6872 116.117C49.4895 116.188 49.3221 116.287 49.1847 116.414C49.0476 116.541 48.9388 116.693 48.8579 116.87C48.7814 117.043 48.7308 117.234 48.7067 117.442L48.3919 117.601C48.3919 117.255 48.4301 116.93 48.5069 116.626C48.5875 116.322 48.7108 116.054 48.8761 115.82C49.0414 115.584 49.2515 115.4 49.5057 115.269C49.764 115.135 50.0708 115.068 50.4259 115.068C50.5065 115.068 50.5995 115.077 50.7045 115.094C50.8092 115.109 50.8819 115.124 50.9222 115.142ZM54.4578 120.209C54.724 120.209 54.9703 120.161 55.1965 120.066C55.4225 119.971 55.6081 119.84 55.7534 119.674C55.8988 119.504 55.9814 119.311 56.0014 119.096H57.067C57.047 119.435 56.9158 119.751 56.6737 120.045C56.4353 120.334 56.1226 120.569 55.7352 120.75C55.3477 120.926 54.922 121.015 54.4578 121.015C53.9653 121.015 53.5355 120.939 53.1684 120.787C52.805 120.635 52.5023 120.426 52.2602 120.161C52.0222 119.896 51.8424 119.592 51.7215 119.25C51.6045 118.903 51.5459 118.538 51.5459 118.152V117.93C51.5459 117.545 51.6045 117.181 51.7215 116.838C51.8424 116.492 52.0222 116.186 52.2602 115.921C52.5023 115.656 52.805 115.448 53.1684 115.296C53.5355 115.144 53.9653 115.068 54.4578 115.068C54.9703 115.068 55.4183 115.16 55.8016 115.343C56.1853 115.524 56.486 115.771 56.7036 116.085C56.9258 116.396 57.047 116.75 57.067 117.146H56.0014C55.9814 116.909 55.9046 116.695 55.7713 116.504C55.6422 116.313 55.4648 116.161 55.2389 116.048C55.0168 115.932 54.7564 115.874 54.4578 115.874C54.1148 115.874 53.8262 115.934 53.592 116.054C53.3619 116.17 53.1784 116.329 53.0413 116.531C52.908 116.729 52.8112 116.949 52.7506 117.193C52.6941 117.434 52.6659 117.679 52.6659 117.93V118.152C52.6659 118.403 52.6941 118.651 52.7506 118.894C52.8071 119.138 52.9018 119.359 53.0351 119.557C53.1725 119.755 53.3561 119.914 53.5861 120.034C53.82 120.151 54.1106 120.209 54.4578 120.209ZM59.4461 112.768V120.909H58.3261V112.768H59.4461ZM59.1798 117.824L58.7135 117.808C58.7177 117.416 58.7845 117.054 58.9133 116.721C59.0428 116.386 59.2243 116.094 59.4585 115.847C59.6923 115.6 59.9709 115.409 60.2936 115.274C60.6208 115.137 60.9817 115.068 61.3774 115.068C61.7001 115.068 61.9908 115.107 62.2491 115.185C62.5074 115.259 62.7275 115.379 62.909 115.545C63.0946 115.711 63.2358 115.927 63.3329 116.191C63.4297 116.453 63.4779 116.773 63.4779 117.151V120.909H62.3521V117.14C62.3521 116.84 62.3015 116.6 62.2006 116.419C62.0996 116.236 61.9526 116.103 61.7587 116.022C61.5651 115.937 61.3268 115.895 61.0444 115.895C60.7658 115.895 60.5116 115.946 60.2816 116.048C60.0556 116.151 59.86 116.292 59.6944 116.472C59.5328 116.653 59.4058 116.859 59.3131 117.093C59.2243 117.322 59.1798 117.566 59.1798 117.824ZM68.2244 112.768H69.3503V119.796L69.2535 120.909H68.2244V112.768ZM73.7758 117.993V118.105C73.7758 118.522 73.7193 118.909 73.6063 119.266C73.493 119.619 73.3277 119.926 73.1097 120.188C72.8917 120.449 72.6255 120.652 72.3107 120.797C71.9959 120.942 71.6347 121.015 71.2269 121.015C70.8112 121.015 70.4461 120.953 70.1314 120.829C69.8204 120.702 69.5583 120.52 69.3444 120.283C69.1305 120.047 68.9587 119.76 68.8295 119.425C68.7045 119.089 68.6177 118.711 68.5695 118.29V117.803C68.6177 117.379 68.7045 116.999 68.8295 116.663C68.9587 116.328 69.1305 116.041 69.3444 115.804C69.5583 115.564 69.8204 115.382 70.1314 115.259C70.442 115.131 70.8033 115.068 71.2148 115.068C71.6267 115.068 71.9918 115.138 72.3107 115.28C72.6296 115.418 72.8959 115.615 73.1097 115.874C73.3277 116.131 73.493 116.441 73.6063 116.801C73.7193 117.158 73.7758 117.555 73.7758 117.993ZM72.6496 118.105V117.993C72.6496 117.707 72.6193 117.439 72.559 117.188C72.4984 116.933 72.4016 116.711 72.2684 116.52C72.1351 116.326 71.9594 116.174 71.7418 116.064C71.5238 115.951 71.2551 115.895 70.9366 115.895C70.6538 115.895 70.4079 115.937 70.1978 116.022C69.9919 116.107 69.8166 116.221 69.6712 116.367C69.5259 116.508 69.4067 116.67 69.3141 116.854C69.2253 117.034 69.1588 117.221 69.1144 117.416V118.693C69.1788 118.941 69.2838 119.179 69.4291 119.409C69.5783 119.635 69.7763 119.82 70.0222 119.965C70.2726 120.11 70.5811 120.183 70.9486 120.183C71.2513 120.183 71.5096 120.129 71.7235 120.023C71.9415 119.914 72.1168 119.764 72.2501 119.573C72.3875 119.382 72.4884 119.161 72.5528 118.91C72.6176 118.66 72.6496 118.391 72.6496 118.105ZM76.9601 120.315L78.7823 115.174H79.9808L77.3534 121.794C77.2931 121.935 77.2122 122.087 77.1113 122.249C77.0145 122.416 76.8895 122.573 76.7359 122.721C76.5826 122.87 76.397 122.99 76.179 123.082C75.9651 123.177 75.7089 123.225 75.4103 123.225C75.3214 123.225 75.2085 123.214 75.0714 123.193C74.934 123.172 74.8372 123.154 74.7807 123.14L74.7745 122.345C74.8069 122.348 74.8572 122.352 74.9261 122.356C74.9987 122.363 75.049 122.366 75.0773 122.366C75.3314 122.366 75.5474 122.336 75.7251 122.276C75.9028 122.22 76.0519 122.122 76.1731 121.984C76.2982 121.85 76.4053 121.665 76.4938 121.428L76.9601 120.315ZM75.6221 115.174L77.3234 119.626L77.6138 120.66L76.8086 121.02L74.3991 115.174H75.6221ZM85.1874 112.768V120.909H84.0674V112.768H85.1874ZM84.9209 117.824L84.4549 117.808C84.4587 117.416 84.5255 117.054 84.6546 116.721C84.7838 116.386 84.9653 116.094 85.1995 115.847C85.4333 115.6 85.7119 115.409 86.0346 115.274C86.3618 115.137 86.7231 115.068 87.1185 115.068C87.4412 115.068 87.7318 115.107 87.9901 115.185C88.2484 115.259 88.4685 115.379 88.65 115.545C88.8356 115.711 88.9768 115.927 89.074 116.191C89.1707 116.453 89.2193 116.773 89.2193 117.151V120.909H88.0931V117.14C88.0931 116.84 88.0428 116.6 87.9419 116.419C87.841 116.236 87.6936 116.103 87.4997 116.022C87.3062 115.937 87.0678 115.895 86.7854 115.895C86.5072 115.895 86.2526 115.946 86.0226 116.048C85.7967 116.151 85.6011 116.292 85.4354 116.472C85.2742 116.653 85.1468 116.859 85.0541 117.093C84.9653 117.322 84.9209 117.566 84.9209 117.824ZM93.6142 121.015C93.1582 121.015 92.7446 120.947 92.3733 120.813C92.0058 120.675 91.689 120.483 91.4228 120.236C91.1603 119.988 90.9585 119.695 90.8173 119.356C90.6761 119.017 90.6055 118.645 90.6055 118.243V118.02C90.6055 117.554 90.684 117.138 90.8418 116.774C90.9991 116.407 91.213 116.096 91.4834 115.842C91.7537 115.587 92.0606 115.395 92.4036 115.264C92.7466 115.133 93.1017 115.068 93.4688 115.068C93.9372 115.068 94.3408 115.138 94.6797 115.28C95.0228 115.421 95.3034 115.619 95.5211 115.874C95.7391 116.124 95.9006 116.421 96.0057 116.764C96.1104 117.103 96.1631 117.474 96.1631 117.877V118.317H91.2716V117.516H95.0431V117.442C95.0269 117.188 94.9663 116.941 94.8612 116.7C94.7603 116.46 94.5991 116.262 94.377 116.107C94.1552 115.951 93.8525 115.874 93.4688 115.874C93.2147 115.874 92.9805 115.921 92.7666 116.016C92.5527 116.108 92.3692 116.246 92.2159 116.43C92.0623 116.614 91.9435 116.838 91.8588 117.103C91.774 117.368 91.7317 117.674 91.7317 118.02V118.243C91.7317 118.515 91.774 118.771 91.8588 119.011C91.9473 119.248 92.0747 119.456 92.24 119.636C92.4095 119.817 92.6133 119.958 92.8513 120.061C93.0938 120.163 93.3679 120.214 93.6748 120.214C94.0705 120.214 94.4053 120.144 94.6797 120.002C94.9542 119.861 95.1943 119.672 95.4002 119.435L96.0783 119.907C95.9368 120.094 95.7574 120.273 95.5394 120.442C95.3214 120.612 95.0531 120.75 94.7341 120.856C94.4194 120.962 94.046 121.015 93.6142 121.015ZM101.333 119.928V116.976C101.333 116.75 101.28 116.554 101.175 116.388C101.075 116.218 100.921 116.087 100.715 115.995C100.51 115.903 100.256 115.858 99.9528 115.858C99.6701 115.858 99.4221 115.9 99.2079 115.985C98.9981 116.07 98.8328 116.181 98.7116 116.319C98.5945 116.456 98.536 116.605 98.536 116.764H97.416C97.416 116.559 97.4766 116.356 97.5978 116.154C97.7187 115.953 97.8923 115.771 98.1182 115.608C98.3483 115.442 98.6227 115.312 98.9417 115.216C99.2647 115.117 99.6239 115.068 100.019 115.068C100.496 115.068 100.915 115.138 101.278 115.28C101.646 115.421 101.932 115.635 102.138 115.921C102.348 116.204 102.453 116.559 102.453 116.986V119.658C102.453 119.848 102.471 120.052 102.508 120.267C102.548 120.483 102.606 120.668 102.683 120.824V120.909H101.515C101.458 120.796 101.414 120.645 101.381 120.458C101.349 120.267 101.333 120.091 101.333 119.928ZM101.527 117.432L101.539 118.121H100.407C100.088 118.121 99.8033 118.144 99.553 118.189C99.3029 118.232 99.0932 118.297 98.9234 118.386C98.754 118.474 98.6248 118.585 98.536 118.72C98.4474 118.85 98.403 119.004 98.403 119.181C98.403 119.361 98.4492 119.525 98.5422 119.674C98.6348 119.822 98.7743 119.94 98.9599 120.029C99.1497 120.113 99.3815 120.156 99.6559 120.156C99.999 120.156 100.302 120.092 100.564 119.965C100.827 119.838 101.034 119.683 101.188 119.499C101.345 119.315 101.43 119.137 101.442 118.963L101.92 119.435C101.892 119.583 101.815 119.748 101.69 119.928C101.565 120.108 101.398 120.281 101.188 120.448C100.982 120.61 100.736 120.746 100.449 120.856C100.167 120.962 99.8478 121.015 99.4927 121.015C99.0488 121.015 98.6593 120.939 98.3242 120.787C97.9932 120.635 97.7349 120.432 97.5493 120.177C97.3678 119.919 97.2768 119.631 97.2768 119.313C97.2768 119.006 97.3454 118.736 97.4828 118.502C97.6199 118.265 97.8175 118.069 98.0758 117.914C98.3341 117.755 98.6451 117.635 99.0081 117.554C99.3715 117.472 99.7772 117.432 100.225 117.432H101.527ZM105.432 112.768V120.909H104.305V112.768H105.432ZM109.972 115.174V115.927H106.43V115.174H109.972ZM107.629 113.78H108.749V119.488C108.749 119.683 108.783 119.829 108.852 119.928C108.921 120.027 109.009 120.092 109.118 120.124C109.227 120.156 109.344 120.172 109.469 120.172C109.562 120.172 109.659 120.165 109.76 120.151C109.865 120.133 109.943 120.119 109.996 120.108L110.002 120.909C109.913 120.933 109.796 120.956 109.651 120.978C109.51 121.002 109.338 121.015 109.137 121.015C108.862 121.015 108.61 120.967 108.38 120.871C108.149 120.776 107.966 120.617 107.829 120.394C107.696 120.168 107.629 119.864 107.629 119.483V113.78ZM112.406 112.768V120.909H111.286V112.768H112.406ZM112.139 117.824L111.673 117.808C111.677 117.416 111.744 117.054 111.873 116.721C112.002 116.386 112.183 116.094 112.418 115.847C112.652 115.6 112.93 115.409 113.253 115.274C113.58 115.137 113.941 115.068 114.337 115.068C114.66 115.068 114.95 115.107 115.208 115.185C115.467 115.259 115.687 115.379 115.868 115.545C116.054 115.711 116.195 115.927 116.292 116.191C116.389 116.453 116.437 116.773 116.437 117.151V120.909H115.311V117.14C115.311 116.84 115.261 116.6 115.16 116.419C115.059 116.236 114.912 116.103 114.718 116.022C114.524 115.937 114.286 115.895 114.004 115.895C113.725 115.895 113.471 115.946 113.241 116.048C113.015 116.151 112.819 116.292 112.654 116.472C112.492 116.653 112.365 116.859 112.272 117.093C112.183 117.322 112.139 117.566 112.139 117.824ZM122.31 116.276V123.113H121.184V115.174H122.213L122.31 116.276ZM126.723 117.993V118.105C126.723 118.522 126.666 118.909 126.553 119.266C126.44 119.619 126.275 119.926 126.057 120.188C125.843 120.449 125.579 120.652 125.264 120.797C124.949 120.942 124.588 121.015 124.18 121.015C123.765 121.015 123.397 120.954 123.078 120.834C122.76 120.714 122.489 120.539 122.267 120.31C122.045 120.08 121.868 119.804 121.735 119.483C121.605 119.161 121.517 118.799 121.468 118.396V117.803C121.517 117.379 121.608 116.999 121.74 116.663C121.874 116.328 122.049 116.041 122.267 115.804C122.489 115.564 122.758 115.382 123.072 115.259C123.387 115.131 123.75 115.068 124.162 115.068C124.574 115.068 124.939 115.138 125.258 115.28C125.577 115.418 125.845 115.615 126.063 115.874C126.281 116.131 126.444 116.441 126.553 116.801C126.666 117.158 126.723 117.555 126.723 117.993ZM125.597 118.105V117.993C125.597 117.707 125.563 117.439 125.494 117.188C125.426 116.933 125.318 116.711 125.173 116.52C125.032 116.326 124.85 116.174 124.628 116.064C124.406 115.951 124.142 115.895 123.835 115.895C123.553 115.895 123.306 115.937 123.097 116.022C122.891 116.107 122.715 116.221 122.57 116.367C122.425 116.508 122.306 116.67 122.213 116.854C122.124 117.034 122.057 117.221 122.013 117.416V118.789C122.094 119.036 122.207 119.269 122.352 119.488C122.497 119.704 122.691 119.879 122.933 120.013C123.175 120.144 123.48 120.209 123.847 120.209C124.15 120.209 124.41 120.154 124.628 120.045C124.85 119.932 125.032 119.778 125.173 119.583C125.318 119.389 125.426 119.167 125.494 118.916C125.563 118.661 125.597 118.391 125.597 118.105ZM129.369 112.768V120.909H128.242V112.768H129.369ZM135.029 119.928V116.976C135.029 116.75 134.976 116.554 134.871 116.388C134.77 116.218 134.617 116.087 134.411 115.995C134.206 115.903 133.951 115.858 133.648 115.858C133.366 115.858 133.118 115.9 132.904 115.985C132.694 116.07 132.528 116.181 132.408 116.319C132.29 116.456 132.232 116.605 132.232 116.764H131.112C131.112 116.559 131.173 116.356 131.294 116.154C131.415 115.953 131.588 115.771 131.814 115.608C132.044 115.442 132.319 115.312 132.638 115.216C132.96 115.117 133.319 115.068 133.715 115.068C134.192 115.068 134.611 115.138 134.974 115.28C135.341 115.421 135.628 115.635 135.834 115.921C136.044 116.204 136.149 116.559 136.149 116.986V119.658C136.149 119.848 136.167 120.052 136.203 120.267C136.244 120.483 136.302 120.668 136.379 120.824V120.909H135.211C135.154 120.796 135.11 120.645 135.077 120.458C135.045 120.267 135.029 120.091 135.029 119.928ZM135.223 117.432L135.235 118.121H134.103C133.784 118.121 133.499 118.144 133.249 118.189C132.999 118.232 132.789 118.297 132.619 118.386C132.45 118.474 132.321 118.585 132.232 118.72C132.143 118.85 132.099 119.004 132.099 119.181C132.099 119.361 132.145 119.525 132.238 119.674C132.331 119.822 132.47 119.94 132.656 120.029C132.845 120.113 133.077 120.156 133.352 120.156C133.695 120.156 133.998 120.092 134.26 119.965C134.522 119.838 134.73 119.683 134.883 119.499C135.041 119.315 135.126 119.137 135.138 118.963L135.616 119.435C135.588 119.583 135.511 119.748 135.386 119.928C135.261 120.108 135.094 120.281 134.883 120.448C134.678 120.61 134.432 120.746 134.145 120.856C133.863 120.962 133.544 121.015 133.189 121.015C132.744 121.015 132.355 120.939 132.02 120.787C131.689 120.635 131.431 120.432 131.245 120.177C131.064 119.919 130.973 119.631 130.973 119.313C130.973 119.006 131.041 118.736 131.179 118.502C131.316 118.265 131.513 118.069 131.772 117.914C132.03 117.755 132.341 117.635 132.704 117.554C133.067 117.472 133.473 117.432 133.921 117.432H135.223ZM139.03 116.398V120.909H137.91V115.174H138.97L139.03 116.398ZM138.764 117.824L138.298 117.808C138.302 117.416 138.369 117.054 138.498 116.721C138.627 116.386 138.809 116.094 139.043 115.847C139.277 115.6 139.555 115.409 139.878 115.274C140.205 115.137 140.566 115.068 140.962 115.068C141.284 115.068 141.575 115.107 141.833 115.185C142.092 115.259 142.312 115.379 142.493 115.545C142.679 115.711 142.82 115.927 142.917 116.191C143.014 116.453 143.062 116.773 143.062 117.151V120.909H141.936V117.14C141.936 116.84 141.886 116.6 141.785 116.419C141.684 116.236 141.537 116.103 141.343 116.022C141.149 115.937 140.911 115.895 140.629 115.895C140.35 115.895 140.096 115.946 139.866 116.048C139.64 116.151 139.444 116.292 139.279 116.472C139.117 116.653 138.99 116.859 138.897 117.093C138.809 117.322 138.764 117.566 138.764 117.824Z" fill="#333333"/>
<path d="M164.146 0.150391H1.72167C0.865741 0.150391 0.171875 0.757865 0.171875 1.50722V137.263C0.171875 138.012 0.865741 138.62 1.72167 138.62H164.146C165.002 138.62 165.696 138.012 165.696 137.263V1.50722C165.696 0.757865 165.002 0.150391 164.146 0.150391Z" stroke="#9747FF" stroke-dasharray="10 5"/>
</g>
<defs>
<clipPath id="clip0_268_30">
<rect width="166" height="139" fill="white"/>
</clipPath>
</defs>
</svg>
