<svg width="162" height="213" viewBox="0 0 162 213" fill="none" xmlns="http://www.w3.org/2000/svg">
<path d="M26.9908 47.3333C26.9908 34.7798 31.258 22.7403 38.8538 13.8636C46.4495 4.98689 56.7516 0 67.4936 0C78.2356 0 88.5376 4.98689 96.1333 13.8636C103.729 22.7403 107.996 34.7798 107.996 47.3333C107.996 49.4256 107.285 51.4322 106.019 52.9116C104.753 54.3911 103.036 55.2222 101.246 55.2222C99.4555 55.2222 97.7385 54.3911 96.4726 52.9116C95.2066 51.4322 94.4954 49.4256 94.4954 47.3333C94.4954 38.9643 91.6506 30.938 86.5867 25.0202C81.5229 19.1024 74.6549 15.7778 67.4936 15.7778C60.3322 15.7778 53.4642 19.1024 48.4004 25.0202C43.3365 30.938 40.4917 38.9643 40.4917 47.3333C40.4917 49.4256 39.7805 51.4322 38.5146 52.9116C37.2486 54.3911 35.5316 55.2222 33.7413 55.2222C31.9509 55.2222 30.2339 54.3911 28.968 52.9116C27.702 51.4322 26.9908 49.4256 26.9908 47.3333ZM147.849 102.556C140.584 102.95 134.998 110.267 134.998 118.757V125.936C135.022 127.972 134.385 129.943 133.215 131.452C132.046 132.962 130.431 133.897 128.695 134.072C127.772 134.143 126.845 133.992 125.974 133.628C125.103 133.264 124.305 132.694 123.63 131.954C122.955 131.214 122.417 130.32 122.05 129.328C121.683 128.335 121.495 127.264 121.497 126.183V102.999C121.497 94.5089 115.911 87.2215 108.646 86.7975C106.821 86.6947 104.996 87.0261 103.284 87.7716C101.571 88.5172 100.006 89.6613 98.6827 91.1346C97.3597 92.608 96.3063 94.3799 95.5865 96.3431C94.8668 98.3063 94.4956 100.42 94.4954 102.556V118.067C94.5189 120.103 93.8818 122.074 92.7124 123.583C91.543 125.092 89.928 126.028 88.1922 126.203C87.2688 126.274 86.3427 126.123 85.4713 125.759C84.6 125.395 83.802 124.825 83.1271 124.085C82.4521 123.345 81.9144 122.451 81.5476 121.458C81.1807 120.465 80.9925 119.395 80.9945 118.314V47.7771C80.9945 39.2867 75.4085 31.9993 68.1433 31.5753C66.3178 31.4725 64.4935 31.8039 62.7809 32.5494C61.0683 33.2949 59.503 34.439 58.18 35.9124C56.8569 37.3858 55.8036 39.1577 55.0838 41.1209C54.364 43.084 53.9928 45.1976 53.9926 47.3333V165.41C54.0132 167.318 53.455 169.173 52.417 170.646C51.3791 172.119 49.9285 173.115 48.3223 173.457H48.221C47.2141 173.589 46.1962 173.37 45.2954 172.828C44.3945 172.286 43.651 171.444 43.1582 170.41L25.4382 134.476C21.8098 127.12 13.8443 124.053 7.38071 127.948C5.74743 128.919 4.30032 130.268 3.12754 131.913C1.95476 133.558 1.08085 135.466 0.559026 137.518C0.0372072 139.571 -0.121595 141.726 0.0922934 143.853C0.306182 145.98 0.888283 148.033 1.80314 149.889L27.9612 209.105C28.5533 210.284 29.3974 211.263 30.4106 211.945C31.4239 212.628 32.5716 212.992 33.7413 213H148.499C149.753 213.001 150.983 212.594 152.05 211.824C153.117 211.054 153.98 209.952 154.541 208.641C154.845 207.931 162 193.791 162 168.556V118.333C162.002 116.196 161.633 114.08 160.914 112.115C160.195 110.149 159.142 108.375 157.819 106.899C156.495 105.424 154.929 104.278 153.216 103.531C151.502 102.785 149.676 102.453 147.849 102.556Z" fill="#254D88"/>
</svg>
