<svg width="51" height="45" viewBox="0 0 51 45" fill="none" xmlns="http://www.w3.org/2000/svg">
<g clip-path="url(#clip0_210_14)">
<path d="M31.102 16.8075C30.0215 16.8075 29.2214 17.0479 28.5951 17.3517C28.4946 17.0367 28.1647 16.8061 27.7759 16.875H23.0201C22.55 16.8061 22.1691 17.1421 22.3141 17.5781V33.0468C22.1691 33.4406 22.55 33.7781 23.0201 33.75H27.7759C28.246 33.7781 28.6269 33.4406 28.6269 33.0257L28.6253 23.677C28.6237 23.6728 28.6062 23.2256 28.9266 22.9176C29.1831 22.6729 29.6246 22.5478 30.235 22.5478C31.2518 22.5478 31.7045 22.9148 31.8734 23.7361V33.0257C31.7061 33.4406 32.087 33.7781 32.5571 33.75H37.5695C38.0396 33.7781 38.4205 33.4406 38.2516 33.0257V23.4239C38.4189 18.5414 34.4776 16.8075 31.102 16.8075ZM36.7168 32.3437H33.4082V23.7361C33.4082 22.0753 32.1921 21.0459 30.2366 21.0459C29.1306 21.0459 28.2699 21.3328 27.6771 21.8981C26.8531 22.6856 26.9168 23.684 27.0937 23.9062V32.3437H23.8712V18.3093H26.9248V18.7818C26.9236 18.9226 26.9673 19.0608 27.0511 19.1806C27.1349 19.3004 27.2553 19.3969 27.3984 19.459C27.5416 19.5211 27.7017 19.5464 27.8604 19.5318C28.019 19.5172 28.1698 19.4635 28.2954 19.3767L28.5185 19.2248C29.164 18.7762 29.8318 18.3107 31.1036 18.3107C32.4201 18.3107 36.7184 18.6806 36.7184 23.4253L36.7168 32.3437ZM17.5312 9.7959C15.7431 9.7959 14.2896 11.0784 14.2896 12.6562C14.2896 14.234 15.7431 15.5165 17.5312 15.5165C19.3194 15.5165 20.7729 14.234 20.7729 12.6562C20.7729 11.0784 19.3194 9.7959 17.5312 9.7959ZM17.5312 14.0146C16.6834 14.0146 15.9917 13.4043 15.9917 12.6562C15.9917 11.9081 16.6834 11.2978 17.5312 11.2978C18.3791 11.2978 19.0708 11.9081 19.0708 12.6562C19.0708 13.4043 18.3791 14.0146 17.5312 14.0146ZM19.8071 16.8061H15.0769C14.6067 16.8061 14.2258 17.1421 14.3437 17.5781V33.0468C14.2258 33.4406 14.6067 33.7781 15.0769 33.75H19.8071C20.2773 33.7781 20.6582 33.4406 20.6582 33.0257V17.557C20.6582 17.3578 20.5685 17.1668 20.4089 17.026C20.2493 16.8852 20.0328 16.8061 19.8071 16.8061ZM19.125 32.3437H15.9279V18.3093H19.125V32.3437Z" fill="black"/>
<path d="M0.445801 22.5C0.445801 10.399 11.6235 0.452148 25.5 0.452148C39.3764 0.452148 50.5542 10.399 50.5542 22.5C50.5542 34.6009 39.3764 44.5478 25.5 44.5478C11.6235 44.5478 0.445801 34.6009 0.445801 22.5ZM1.14793 22.5C1.14793 34.4375 12.1329 44.0459 25.5 44.0459C38.8671 44.0459 49.8521 34.4375 49.8521 22.5C49.8521 10.5625 38.8671 0.954024 25.5 0.954024C12.1329 0.954024 1.14793 10.5625 1.14793 22.5Z" fill="black" stroke="white"/>
</g>
<defs>
<clipPath id="clip0_210_14">
<rect width="51" height="45" fill="white"/>
</clipPath>
</defs>
</svg>
