<svg width="57" height="54" viewBox="0 0 57 54" fill="none" xmlns="http://www.w3.org/2000/svg">
<path d="M12.9512 17.5463V54H0.705078V17.5463H12.9512ZM13.7305 6.29019C13.7552 8.08038 13.1305 9.57629 11.8564 10.7779C10.5824 11.9796 8.90625 12.5804 6.82812 12.5804H6.75391C4.72526 12.5804 3.09245 11.9796 1.85547 10.7779C0.61849 9.57629 0 8.08038 0 6.29019C0 4.47548 0.637044 2.97343 1.91113 1.78406C3.18522 0.594687 4.84896 0 6.90234 0C8.95573 0 10.6009 0.594687 11.8379 1.78406C13.0749 2.97343 13.7057 4.47548 13.7305 6.29019ZM57 33.1063V54H44.791V34.5041C44.791 31.9292 44.29 29.9121 43.2881 28.453C42.2861 26.9939 40.7214 26.2643 38.5938 26.2643C37.0352 26.2643 35.7301 26.6873 34.6787 27.5334C33.6273 28.3794 32.8418 29.4278 32.3223 30.6785C32.0501 31.4142 31.9141 32.4074 31.9141 33.658V54H19.7051C19.7546 44.2153 19.7793 36.282 19.7793 30.2003C19.7793 24.1185 19.7669 20.4891 19.7422 19.312L19.7051 17.5463H31.9141V22.8433H31.8398C32.3346 22.0586 32.8418 21.3719 33.3613 20.7834C33.8809 20.1948 34.5798 19.5572 35.458 18.8706C36.3363 18.1839 37.4124 17.6505 38.6865 17.2704C39.9606 16.8903 41.377 16.7003 42.9355 16.7003C47.166 16.7003 50.5677 18.092 53.1406 20.8753C55.7135 23.6587 57 27.7357 57 33.1063Z" fill="black"/>
</svg>
