<svg width="60" height="56" viewBox="0 0 60 56" fill="none" xmlns="http://www.w3.org/2000/svg">
<path d="M29.8828 15.3125C27.2174 15.3125 24.6118 16.0502 22.3956 17.4323C20.1794 18.8144 18.4521 20.7788 17.4321 23.0772C16.4121 25.3755 16.1452 27.9046 16.6652 30.3445C17.1852 32.7844 18.4687 35.0256 20.3534 36.7847C22.2382 38.5438 24.6395 39.7417 27.2537 40.2271C29.8679 40.7124 32.5776 40.4633 35.0401 39.5113C37.5026 38.5593 39.6073 36.9471 41.0882 34.8787C42.569 32.8102 43.3594 30.3783 43.3594 27.8906C43.3547 24.556 41.9334 21.3593 39.407 19.0013C36.8807 16.6434 33.4556 15.3168 29.8828 15.3125ZM29.8828 37.1875C27.9127 37.1875 25.9869 36.6422 24.3488 35.6207C22.7107 34.5991 21.434 33.1472 20.6801 31.4484C19.9262 29.7496 19.7289 27.8803 20.1133 26.0769C20.4976 24.2735 21.4463 22.6169 22.8394 21.3167C24.2324 20.0165 26.0073 19.1311 27.9395 18.7724C29.8718 18.4137 31.8746 18.5978 33.6947 19.3014C35.5148 20.0051 37.0705 21.1967 38.165 22.7256C39.2596 24.2544 39.8438 26.0519 39.8438 27.8906C39.8438 30.3563 38.7943 32.721 36.9263 34.4645C35.0582 36.208 32.5246 37.1875 29.8828 37.1875ZM43.9453 0H15.8203C11.6259 0.00434249 7.60468 1.5614 4.6388 4.32955C1.67293 7.0977 0.00465267 10.8509 0 14.7656V41.0156C0.00465267 44.9304 1.67293 48.6836 4.6388 51.4517C7.60468 54.2199 11.6259 55.7769 15.8203 55.7812H43.9453C48.1397 55.7769 52.1609 54.2199 55.1268 51.4517C58.0927 48.6836 59.761 44.9304 59.7656 41.0156V14.7656C59.761 10.8509 58.0927 7.0977 55.1268 4.32955C52.1609 1.5614 48.1397 0.00434249 43.9453 0ZM56.25 41.0156C56.25 44.0615 54.9536 46.9826 52.646 49.1363C50.3385 51.29 47.2087 52.5 43.9453 52.5H15.8203C12.5569 52.5 9.42716 51.29 7.11958 49.1363C4.81201 46.9826 3.51563 44.0615 3.51562 41.0156V14.7656C3.51562 11.7198 4.81201 8.79868 7.11958 6.64495C9.42716 4.49121 12.5569 3.28125 15.8203 3.28125H43.9453C47.2087 3.28125 50.3385 4.49121 52.646 6.64495C54.9536 8.79868 56.25 11.7198 56.25 14.7656V41.0156ZM48.0469 13.6719C48.0469 14.2127 47.8751 14.7413 47.5531 15.191C47.2312 15.6407 46.7737 15.9911 46.2383 16.1981C45.703 16.4051 45.1139 16.4592 44.5456 16.3537C43.9773 16.2482 43.4553 15.9878 43.0456 15.6054C42.6359 15.223 42.3568 14.7357 42.2438 14.2053C42.1308 13.6749 42.1888 13.1251 42.4105 12.6255C42.6322 12.1258 43.0078 11.6988 43.4895 11.3983C43.9713 11.0979 44.5378 10.9375 45.1172 10.9375C45.8942 10.9375 46.6394 11.2256 47.1888 11.7384C47.7382 12.2512 48.0469 12.9467 48.0469 13.6719Z" fill="black"/>
</svg>
