<svg width="25" height="24" viewBox="0 0 25 24" fill="none" xmlns="http://www.w3.org/2000/svg">
<path d="M16.8125 7.01156C15.7319 7.01156 14.9318 7.25203 14.3055 7.55578C14.2051 7.24078 13.8752 7.01016 13.4863 7.07906H8.73056C8.26041 7.01016 7.8795 7.34625 8.02453 7.78219V23.2509C7.8795 23.6447 8.26041 23.9822 8.73056 23.9541H13.4863C13.9565 23.9822 14.3374 23.6447 14.3374 23.2298L14.3358 13.8811C14.3342 13.8769 14.3167 13.4297 14.637 13.1217C14.8936 12.877 15.3351 12.7519 15.9455 12.7519C16.9623 12.7519 17.4149 13.1189 17.5838 13.9402V23.2298C17.4165 23.6447 17.7974 23.9822 18.2676 23.9541H23.2799C23.7501 23.9822 24.131 23.6447 23.962 23.2298V13.628C24.1294 8.74547 20.188 7.01156 16.8125 7.01156ZM22.4273 22.5478H19.1186V13.9402C19.1186 12.2794 17.9026 11.25 15.9471 11.25C14.841 11.25 13.9804 11.5369 13.3875 12.1022C12.5635 12.8897 12.6273 13.8881 12.8042 14.1103V22.5478H9.58163V8.51344H12.6352V8.98594C12.634 9.12669 12.6778 9.2649 12.7616 9.38469C12.8454 9.50447 12.9657 9.60097 13.1089 9.6631C13.252 9.72522 13.4121 9.75046 13.5708 9.7359C13.7295 9.72133 13.8803 9.66757 14.0059 9.58078L14.229 9.42891C14.8745 8.98031 15.5423 8.51484 16.8141 8.51484C18.1305 8.51484 22.4288 8.88469 22.4288 13.6294L22.4273 22.5478ZM3.24169 0C1.4535 0 0 1.2825 0 2.86031C0 4.43812 1.4535 5.72063 3.24169 5.72063C5.02988 5.72063 6.48338 4.43812 6.48338 2.86031C6.48338 1.2825 5.02988 0 3.24169 0ZM3.24169 4.21875C2.39381 4.21875 1.70213 3.60844 1.70213 2.86031C1.70213 2.11219 2.39381 1.50188 3.24169 1.50188C4.08956 1.50188 4.78125 2.11219 4.78125 2.86031C4.78125 3.60844 4.08956 4.21875 3.24169 4.21875ZM5.51756 7.01016H0.787313C0.317157 7.01016 -0.0637494 7.34625 0.0541881 7.78219V23.2509C-0.0637494 23.6447 0.317157 23.9822 0.787313 23.9541H5.51756C5.98772 23.9822 6.36863 23.6447 6.36863 23.2298V7.76109C6.36863 7.56193 6.27896 7.37093 6.11936 7.2301C5.95975 7.08927 5.74328 7.01016 5.51756 7.01016ZM4.83544 22.5478H1.63838V8.51344H4.83544V22.5478Z" fill="black"/>
</svg>
