<svg width="28" height="28" viewBox="0 0 28 28" fill="none" xmlns="http://www.w3.org/2000/svg">
<path d="M14.0001 7.90407C12.4025 7.93301 10.88 8.58798 9.76042 9.72806C8.64081 10.8681 8.01351 12.4022 8.01351 14.0001C8.01351 15.598 8.64081 17.132 9.76042 18.2721C10.88 19.4122 12.4025 20.0671 14.0001 20.0961C15.5977 20.0671 17.1202 19.4122 18.2398 18.2721C19.3594 17.132 19.9867 15.598 19.9867 14.0001C19.9867 12.4022 19.3594 10.8681 18.2398 9.72806C17.1202 8.58798 15.5977 7.93301 14.0001 7.90407ZM14.0001 18.4801C12.8119 18.4801 11.6724 18.0081 10.8323 17.1679C9.99209 16.3277 9.52009 15.1882 9.52009 14.0001C9.52009 12.8119 9.99209 11.6724 10.8323 10.8322C11.6724 9.99207 12.8119 9.52007 14.0001 9.52007C15.1883 9.52007 16.3278 9.99207 17.1679 10.8322C18.0081 11.6724 18.4801 12.8119 18.4801 14.0001C18.4801 15.1882 18.0081 16.3277 17.1679 17.1679C16.3278 18.0081 15.1883 18.4801 14.0001 18.4801ZM22.5761 0.320068H5.42309C4.74586 0.3202 4.07529 0.45372 3.44967 0.713004C2.82404 0.972289 2.25561 1.35226 1.77683 1.83123C1.29805 2.31019 0.918303 2.87877 0.659261 3.50449C0.400218 4.13022 0.266959 4.80084 0.26709 5.47807V22.5201C0.26709 25.3701 2.57709 27.6761 5.42309 27.6761H22.5761C25.4261 27.6761 27.7321 25.3661 27.7321 22.5211V5.48007C27.7321 2.63007 25.4251 0.320068 22.5761 0.320068ZM20.2361 3.39407C20.2361 2.78907 20.7261 2.29707 21.3331 2.29707H24.5531C25.1571 2.29707 25.6491 2.78707 25.6491 3.39407V6.61407C25.6491 7.21807 25.1591 7.71007 24.5511 7.71007H21.3311C20.7281 7.71007 20.2351 7.22007 20.2351 6.61307V3.39307L20.2361 3.39407ZM26.6361 22.5211C26.6361 24.7591 24.8161 26.5811 22.5761 26.5811H5.42309C4.34664 26.58 3.31457 26.1519 2.55341 25.3908C1.79224 24.6296 1.36415 23.5975 1.36309 22.5211V8.88007H2.19009C2.29209 8.38007 2.73409 8.00207 3.26509 8.00207H6.70309C7.23309 8.00207 7.67709 8.37907 7.77709 8.87907H9.27509C10.5171 7.73207 12.1751 7.03007 14.0001 7.03007C15.8251 7.03007 17.4801 7.73007 18.7231 8.87707H26.6351V22.5201H26.6371L26.6361 22.5211Z" fill="black"/>
</svg>
